G04 #@! TF.GenerationSoftware,KiCad,Pcbnew,(6.0.8)*
G04 #@! TF.CreationDate,2022-11-06T18:43:30+02:00*
G04 #@! TF.ProjectId,PIDController - Copy,50494443-6f6e-4747-926f-6c6c6572202d,rev?*
G04 #@! TF.SameCoordinates,Original*
G04 #@! TF.FileFunction,Legend,Top*
G04 #@! TF.FilePolarity,Positive*
%FSLAX46Y46*%
G04 Gerber Fmt 4.6, Leading zero omitted, Abs format (unit mm)*
G04 Created by KiCad (PCBNEW (6.0.8)) date 2022-11-06 18:43:30*
%MOMM*%
%LPD*%
G01*
G04 APERTURE LIST*
%ADD10C,0.051858*%
%ADD11C,0.000000*%
%ADD12C,0.300000*%
%ADD13C,0.150000*%
%ADD14C,0.120000*%
G04 APERTURE END LIST*
D10*
X83630084Y-61665001D02*
X83630084Y-61665001D01*
X80000000Y-58034917D02*
X83630084Y-58034917D01*
X93335000Y-61665001D02*
X93335000Y-61665001D01*
X83630084Y-58034917D02*
X83630084Y-61665001D01*
D11*
G36*
X113296378Y-80791343D02*
G01*
X112446403Y-81295374D01*
X112459980Y-81293015D01*
X112473905Y-81290888D01*
X112488156Y-81288979D01*
X112502710Y-81287271D01*
X112517542Y-81285749D01*
X112532630Y-81284398D01*
X112563481Y-81282145D01*
X112630371Y-81279333D01*
X112666638Y-81278052D01*
X112685775Y-81277659D01*
X112705695Y-81277514D01*
X113297038Y-81277514D01*
X113297038Y-81846369D01*
X111656622Y-81846369D01*
X111656622Y-81268254D01*
X112515195Y-80760254D01*
X112501002Y-80762613D01*
X112486236Y-80764739D01*
X112470942Y-80766649D01*
X112455168Y-80768357D01*
X112438960Y-80769879D01*
X112422364Y-80771230D01*
X112388195Y-80773483D01*
X112308324Y-80776294D01*
X112260203Y-80777576D01*
X112207617Y-80778113D01*
X111655961Y-80778113D01*
X111655961Y-80209259D01*
X113296378Y-80209259D01*
X113296378Y-80791343D01*
G37*
G36*
X115025430Y-73486198D02*
G01*
X114263429Y-73962448D01*
X115025430Y-73962448D01*
X115025430Y-74172130D01*
X113983632Y-74172130D01*
X113983632Y-73932021D01*
X114750924Y-73464369D01*
X113983632Y-73464369D01*
X113983632Y-73252703D01*
X115025430Y-73252703D01*
X115025430Y-73486198D01*
G37*
D10*
X83630084Y-75000000D02*
X80000000Y-75000000D01*
D11*
G36*
X114280629Y-71062615D02*
G01*
X114265119Y-71079234D01*
X114250588Y-71096105D01*
X114237040Y-71113229D01*
X114224478Y-71130611D01*
X114212903Y-71148251D01*
X114202320Y-71166155D01*
X114192731Y-71184324D01*
X114184139Y-71202761D01*
X114176547Y-71221470D01*
X114169958Y-71240453D01*
X114164374Y-71259713D01*
X114159800Y-71279253D01*
X114156236Y-71299076D01*
X114153688Y-71319184D01*
X114152156Y-71339582D01*
X114151645Y-71360271D01*
X114151807Y-71372668D01*
X114152317Y-71385034D01*
X114153215Y-71397338D01*
X114154539Y-71409549D01*
X114156328Y-71421637D01*
X114157409Y-71427624D01*
X114158621Y-71433569D01*
X114159969Y-71439467D01*
X114161457Y-71445315D01*
X114163090Y-71451108D01*
X114164873Y-71456844D01*
X114168249Y-71468621D01*
X114172408Y-71481111D01*
X114177326Y-71494283D01*
X114182981Y-71508107D01*
X114189349Y-71522550D01*
X114196407Y-71537583D01*
X114204131Y-71553174D01*
X114212499Y-71569292D01*
X114217375Y-71577554D01*
X114222580Y-71585721D01*
X114228116Y-71593789D01*
X114233986Y-71601755D01*
X114240194Y-71609617D01*
X114246741Y-71617370D01*
X114253632Y-71625014D01*
X114260868Y-71632544D01*
X114268454Y-71639958D01*
X114276391Y-71647253D01*
X114284682Y-71654425D01*
X114293331Y-71661473D01*
X114302341Y-71668392D01*
X114311714Y-71675181D01*
X114321453Y-71681836D01*
X114331561Y-71688355D01*
X114341559Y-71694618D01*
X114351702Y-71700504D01*
X114361981Y-71706011D01*
X114372386Y-71711134D01*
X114382907Y-71715870D01*
X114393535Y-71720214D01*
X114404259Y-71724162D01*
X114415071Y-71727712D01*
X114425960Y-71730858D01*
X114436917Y-71733598D01*
X114447932Y-71735926D01*
X114458996Y-71737840D01*
X114470099Y-71739336D01*
X114481230Y-71740409D01*
X114492381Y-71741055D01*
X114503541Y-71741271D01*
X114522578Y-71740806D01*
X114541240Y-71739411D01*
X114559524Y-71737086D01*
X114577428Y-71733830D01*
X114594947Y-71729644D01*
X114612080Y-71724528D01*
X114628824Y-71718482D01*
X114645175Y-71711506D01*
X114661131Y-71703599D01*
X114676689Y-71694762D01*
X114691845Y-71684996D01*
X114706598Y-71674299D01*
X114720944Y-71662671D01*
X114734879Y-71650114D01*
X114748402Y-71636627D01*
X114761509Y-71622209D01*
X114773873Y-71607356D01*
X114785419Y-71592314D01*
X114796148Y-71577078D01*
X114806065Y-71561644D01*
X114815171Y-71546008D01*
X114823471Y-71530168D01*
X114830966Y-71514118D01*
X114837660Y-71497854D01*
X114843555Y-71481374D01*
X114848655Y-71464673D01*
X114852962Y-71447747D01*
X114856480Y-71430592D01*
X114859211Y-71413205D01*
X114861158Y-71395582D01*
X114862324Y-71377718D01*
X114862712Y-71359610D01*
X114862603Y-71349254D01*
X114862273Y-71339019D01*
X114861718Y-71328905D01*
X114860935Y-71318909D01*
X114859919Y-71309030D01*
X114858666Y-71299265D01*
X114857173Y-71289612D01*
X114855436Y-71280069D01*
X114853451Y-71270635D01*
X114851214Y-71261308D01*
X114848722Y-71252085D01*
X114845969Y-71242966D01*
X114842953Y-71233946D01*
X114839670Y-71225026D01*
X114836115Y-71216203D01*
X114832285Y-71207474D01*
X114828543Y-71198715D01*
X114824514Y-71190048D01*
X114820209Y-71181471D01*
X114815635Y-71172985D01*
X114810801Y-71164588D01*
X114805717Y-71156280D01*
X114800390Y-71148058D01*
X114794830Y-71139923D01*
X114789045Y-71131873D01*
X114783044Y-71123907D01*
X114776835Y-71116024D01*
X114770428Y-71108224D01*
X114763831Y-71100506D01*
X114757053Y-71092867D01*
X114750102Y-71085308D01*
X114742988Y-71077828D01*
X114742988Y-70831766D01*
X114756738Y-70838757D01*
X114770203Y-70846089D01*
X114783378Y-70853760D01*
X114796256Y-70861769D01*
X114808831Y-70870115D01*
X114821099Y-70878798D01*
X114833053Y-70887815D01*
X114844687Y-70897167D01*
X114855995Y-70906853D01*
X114866972Y-70916870D01*
X114877612Y-70927219D01*
X114887909Y-70937899D01*
X114897857Y-70948907D01*
X114907450Y-70960245D01*
X114916683Y-70971909D01*
X114925550Y-70983901D01*
X114934511Y-70996211D01*
X114943040Y-71008341D01*
X114951138Y-71020297D01*
X114958808Y-71032084D01*
X114966052Y-71043708D01*
X114972872Y-71055175D01*
X114979269Y-71066491D01*
X114985246Y-71077662D01*
X114990804Y-71088693D01*
X114995946Y-71099591D01*
X115000672Y-71110360D01*
X115004986Y-71121008D01*
X115008890Y-71131539D01*
X115012384Y-71141960D01*
X115015471Y-71152277D01*
X115018154Y-71162494D01*
X115022926Y-71181655D01*
X115027311Y-71199939D01*
X115031292Y-71217340D01*
X115034855Y-71233849D01*
X115037984Y-71249459D01*
X115040664Y-71264163D01*
X115042878Y-71277951D01*
X115044611Y-71290818D01*
X115045978Y-71303104D01*
X115047113Y-71315188D01*
X115048030Y-71327118D01*
X115048746Y-71338939D01*
X115049275Y-71350698D01*
X115049635Y-71362441D01*
X115049839Y-71374216D01*
X115049903Y-71386068D01*
X115048198Y-71405787D01*
X115046059Y-71425253D01*
X115043485Y-71444461D01*
X115040478Y-71463407D01*
X115037036Y-71482085D01*
X115033160Y-71500491D01*
X115028850Y-71518620D01*
X115024106Y-71536467D01*
X115018928Y-71554027D01*
X115013316Y-71571296D01*
X115007270Y-71588268D01*
X115000790Y-71604938D01*
X114993876Y-71621303D01*
X114986528Y-71637356D01*
X114978745Y-71653094D01*
X114970529Y-71668511D01*
X114961893Y-71683860D01*
X114953097Y-71698656D01*
X114944137Y-71712906D01*
X114935006Y-71726616D01*
X114925702Y-71739790D01*
X114916218Y-71752436D01*
X114906550Y-71764558D01*
X114896694Y-71776163D01*
X114886643Y-71787256D01*
X114876394Y-71797843D01*
X114865941Y-71807931D01*
X114855280Y-71817524D01*
X114844406Y-71826629D01*
X114833314Y-71835252D01*
X114821999Y-71843398D01*
X114810456Y-71851073D01*
X114787422Y-71864025D01*
X114764970Y-71876063D01*
X114743122Y-71887140D01*
X114721903Y-71897209D01*
X114701334Y-71906224D01*
X114681440Y-71914139D01*
X114671753Y-71917669D01*
X114662243Y-71920906D01*
X114652914Y-71923844D01*
X114643768Y-71926479D01*
X114625039Y-71931433D01*
X114606054Y-71935853D01*
X114586806Y-71939699D01*
X114567287Y-71942932D01*
X114547488Y-71945515D01*
X114527403Y-71947408D01*
X114507023Y-71948572D01*
X114486341Y-71948968D01*
X114476286Y-71948816D01*
X114466425Y-71948369D01*
X114456703Y-71947643D01*
X114447067Y-71946653D01*
X114437462Y-71945416D01*
X114427833Y-71943945D01*
X114418127Y-71942258D01*
X114408289Y-71940369D01*
X114398310Y-71938015D01*
X114387246Y-71934933D01*
X114375128Y-71931137D01*
X114361987Y-71926644D01*
X114347853Y-71921468D01*
X114332759Y-71915626D01*
X114316734Y-71909133D01*
X114299810Y-71902005D01*
X114290834Y-71898324D01*
X114281770Y-71894231D01*
X114272620Y-71889733D01*
X114263388Y-71884838D01*
X114254080Y-71879550D01*
X114244697Y-71873878D01*
X114235245Y-71867828D01*
X114225727Y-71861407D01*
X114216147Y-71854622D01*
X114206508Y-71847479D01*
X114196816Y-71839986D01*
X114187073Y-71832148D01*
X114177283Y-71823973D01*
X114167451Y-71815468D01*
X114157580Y-71806639D01*
X114147674Y-71797493D01*
X114137846Y-71788059D01*
X114128208Y-71778355D01*
X114118763Y-71768376D01*
X114109516Y-71758116D01*
X114100471Y-71747569D01*
X114091631Y-71736730D01*
X114083000Y-71725592D01*
X114074583Y-71714150D01*
X114066383Y-71702397D01*
X114058403Y-71690329D01*
X114050648Y-71677940D01*
X114043122Y-71665222D01*
X114035829Y-71652172D01*
X114028772Y-71638782D01*
X114021955Y-71625048D01*
X114015382Y-71610962D01*
X114009120Y-71597204D01*
X114003233Y-71583215D01*
X113997726Y-71568997D01*
X113992603Y-71554552D01*
X113987868Y-71539883D01*
X113983524Y-71524991D01*
X113979575Y-71509878D01*
X113976025Y-71494546D01*
X113972879Y-71478997D01*
X113970139Y-71463233D01*
X113967811Y-71447255D01*
X113965897Y-71431067D01*
X113964402Y-71414669D01*
X113963329Y-71398063D01*
X113962682Y-71381253D01*
X113962466Y-71364238D01*
X113963790Y-71362257D01*
X113963921Y-71349357D01*
X113964338Y-71336449D01*
X113965081Y-71323526D01*
X113966187Y-71310580D01*
X113967698Y-71297602D01*
X113969649Y-71284586D01*
X113972082Y-71271524D01*
X113975034Y-71258407D01*
X113977445Y-71245384D01*
X113980677Y-71231122D01*
X113984685Y-71215618D01*
X113989421Y-71198875D01*
X113994839Y-71180892D01*
X114000893Y-71161668D01*
X114014722Y-71119500D01*
X114018948Y-71108724D01*
X114023443Y-71097975D01*
X114028213Y-71087247D01*
X114033264Y-71076536D01*
X114038602Y-71065836D01*
X114044232Y-71055143D01*
X114050161Y-71044452D01*
X114056394Y-71033758D01*
X114062938Y-71023056D01*
X114069797Y-71012342D01*
X114076977Y-71001610D01*
X114084486Y-70990857D01*
X114092327Y-70980075D01*
X114100508Y-70969262D01*
X114109033Y-70958412D01*
X114117910Y-70947521D01*
X114127026Y-70936714D01*
X114136269Y-70926367D01*
X114145642Y-70916473D01*
X114155148Y-70907027D01*
X114164790Y-70898023D01*
X114174570Y-70889454D01*
X114184491Y-70881316D01*
X114194557Y-70873603D01*
X114204770Y-70866308D01*
X114215133Y-70859425D01*
X114225649Y-70852950D01*
X114236321Y-70846876D01*
X114247153Y-70841197D01*
X114258146Y-70835907D01*
X114269303Y-70831002D01*
X114280629Y-70826474D01*
X114280629Y-71062615D01*
G37*
G36*
X113296378Y-58523347D02*
G01*
X112718924Y-58523347D01*
X112718924Y-58883844D01*
X113297038Y-58883844D01*
X113297038Y-59472541D01*
X111656622Y-59472541D01*
X111655961Y-58883182D01*
X112202326Y-58883182D01*
X112202326Y-58523347D01*
X111655961Y-58523347D01*
X111655961Y-57933326D01*
X113296378Y-57933326D01*
X113296378Y-58523347D01*
G37*
D10*
X80000000Y-61665001D02*
X80000000Y-61665001D01*
D11*
G36*
X112194388Y-70401818D02*
G01*
X113296378Y-70401818D01*
X113296378Y-70990515D01*
X112194388Y-70990515D01*
X112194388Y-71318598D01*
X111656622Y-71318598D01*
X111656622Y-70073734D01*
X112194388Y-70073734D01*
X112194388Y-70401818D01*
G37*
D10*
X96965083Y-61665001D02*
X96965083Y-61665001D01*
X93335000Y-61665001D02*
X93335000Y-58034917D01*
D11*
G36*
X114480151Y-62751667D02*
G01*
X114459585Y-62750361D01*
X114439709Y-62748540D01*
X114420515Y-62746208D01*
X114401995Y-62743367D01*
X114384142Y-62740023D01*
X114366948Y-62736179D01*
X114350405Y-62731839D01*
X114334506Y-62727006D01*
X114319242Y-62721685D01*
X114304606Y-62715880D01*
X114290590Y-62709594D01*
X114277186Y-62702831D01*
X114264387Y-62695595D01*
X114252185Y-62687891D01*
X114229089Y-62671916D01*
X114218084Y-62664033D01*
X114207443Y-62656213D01*
X114197171Y-62648452D01*
X114187270Y-62640743D01*
X114177743Y-62633083D01*
X114168593Y-62625466D01*
X114159822Y-62617888D01*
X114151435Y-62610344D01*
X114150320Y-62609298D01*
X114143433Y-62602829D01*
X114135820Y-62595338D01*
X114128598Y-62587867D01*
X114121770Y-62580410D01*
X114115340Y-62572963D01*
X114109310Y-62565521D01*
X114103123Y-62558382D01*
X114096964Y-62550855D01*
X114090828Y-62542941D01*
X114084711Y-62534639D01*
X114072521Y-62516873D01*
X114060362Y-62497556D01*
X114048202Y-62476689D01*
X114036012Y-62454272D01*
X114023760Y-62430304D01*
X114011414Y-62404787D01*
X114005632Y-62391609D01*
X114000195Y-62378124D01*
X113995107Y-62364332D01*
X113990371Y-62350236D01*
X113985992Y-62335838D01*
X113981973Y-62321140D01*
X113978319Y-62306143D01*
X113975033Y-62290850D01*
X113972119Y-62275262D01*
X113969581Y-62259381D01*
X113967423Y-62243210D01*
X113965649Y-62226750D01*
X113964262Y-62210003D01*
X113963267Y-62192972D01*
X113962667Y-62175657D01*
X113962466Y-62158061D01*
X113963128Y-62158061D01*
X113963281Y-62146158D01*
X114150318Y-62146158D01*
X114150320Y-62147480D01*
X114150328Y-62146835D01*
X114150604Y-62164319D01*
X114151464Y-62182092D01*
X114152895Y-62199475D01*
X114154896Y-62216468D01*
X114157468Y-62233070D01*
X114160608Y-62249279D01*
X114164316Y-62265094D01*
X114168591Y-62280516D01*
X114173431Y-62295542D01*
X114178837Y-62310172D01*
X114184806Y-62324405D01*
X114191339Y-62338239D01*
X114198433Y-62351674D01*
X114206089Y-62364709D01*
X114214304Y-62377344D01*
X114223078Y-62389575D01*
X114232000Y-62401669D01*
X114240903Y-62413153D01*
X114249785Y-62424035D01*
X114258642Y-62434327D01*
X114267473Y-62444037D01*
X114276273Y-62453176D01*
X114285040Y-62461752D01*
X114293772Y-62469777D01*
X114302465Y-62477258D01*
X114311116Y-62484207D01*
X114319722Y-62490633D01*
X114328282Y-62496545D01*
X114336790Y-62501953D01*
X114345245Y-62506867D01*
X114353645Y-62511296D01*
X114361985Y-62515251D01*
X114370139Y-62518957D01*
X114378479Y-62522389D01*
X114387002Y-62525551D01*
X114395709Y-62528449D01*
X114404598Y-62531087D01*
X114413668Y-62533471D01*
X114422918Y-62535604D01*
X114432348Y-62537493D01*
X114441955Y-62539140D01*
X114451741Y-62540553D01*
X114461702Y-62541735D01*
X114471839Y-62542691D01*
X114482150Y-62543426D01*
X114492635Y-62543945D01*
X114514120Y-62544355D01*
X114527092Y-62544106D01*
X114533461Y-62543793D01*
X114539762Y-62543353D01*
X114546006Y-62542785D01*
X114552199Y-62542088D01*
X114558353Y-62541262D01*
X114564474Y-62540305D01*
X114570572Y-62539216D01*
X114576656Y-62537994D01*
X114582733Y-62536638D01*
X114588814Y-62535148D01*
X114601019Y-62531759D01*
X114613340Y-62527820D01*
X114624806Y-62522918D01*
X114636853Y-62517132D01*
X114649442Y-62510447D01*
X114662536Y-62502848D01*
X114676094Y-62494319D01*
X114690079Y-62484844D01*
X114704452Y-62474408D01*
X114719173Y-62462995D01*
X114726538Y-62457149D01*
X114733752Y-62451019D01*
X114740822Y-62444598D01*
X114747750Y-62437880D01*
X114754543Y-62430860D01*
X114761206Y-62423532D01*
X114767742Y-62415890D01*
X114774157Y-62407929D01*
X114780456Y-62399642D01*
X114786644Y-62391023D01*
X114792725Y-62382067D01*
X114798704Y-62372769D01*
X114804586Y-62363121D01*
X114810376Y-62353119D01*
X114816079Y-62342756D01*
X114821700Y-62332027D01*
X114826506Y-62321493D01*
X114831001Y-62310980D01*
X114835187Y-62300492D01*
X114839063Y-62290034D01*
X114842629Y-62279611D01*
X114845884Y-62269228D01*
X114848830Y-62258889D01*
X114851466Y-62248600D01*
X114853791Y-62238364D01*
X114855806Y-62228188D01*
X114857512Y-62218076D01*
X114858907Y-62208033D01*
X114859992Y-62198064D01*
X114860768Y-62188173D01*
X114861233Y-62178365D01*
X114861388Y-62168645D01*
X114861107Y-62149336D01*
X114860261Y-62130600D01*
X114858841Y-62112435D01*
X114856840Y-62094841D01*
X114854250Y-62077816D01*
X114851062Y-62061361D01*
X114847271Y-62045473D01*
X114842866Y-62030152D01*
X114837842Y-62015397D01*
X114832190Y-62001206D01*
X114825902Y-61987580D01*
X114818971Y-61974517D01*
X114811389Y-61962015D01*
X114803148Y-61950075D01*
X114794240Y-61938695D01*
X114784658Y-61927873D01*
X114774828Y-61917432D01*
X114765175Y-61907438D01*
X114755690Y-61897890D01*
X114746366Y-61888785D01*
X114737192Y-61880123D01*
X114728161Y-61871900D01*
X114719264Y-61864115D01*
X114710492Y-61856766D01*
X114701836Y-61849852D01*
X114693287Y-61843369D01*
X114684837Y-61837317D01*
X114676478Y-61831693D01*
X114668200Y-61826496D01*
X114659994Y-61821722D01*
X114651853Y-61817372D01*
X114643767Y-61813442D01*
X114635587Y-61809394D01*
X114627412Y-61805677D01*
X114619232Y-61802283D01*
X114611035Y-61799200D01*
X114602811Y-61796419D01*
X114594549Y-61793931D01*
X114586239Y-61791726D01*
X114577869Y-61789794D01*
X114569430Y-61788126D01*
X114560910Y-61786712D01*
X114552300Y-61785541D01*
X114543587Y-61784606D01*
X114534762Y-61783895D01*
X114525814Y-61783399D01*
X114516733Y-61783108D01*
X114507507Y-61783014D01*
X114490702Y-61783329D01*
X114474020Y-61784296D01*
X114465726Y-61785033D01*
X114457463Y-61785944D01*
X114449231Y-61787034D01*
X114441030Y-61788306D01*
X114432860Y-61789764D01*
X114424721Y-61791412D01*
X114416613Y-61793254D01*
X114408536Y-61795293D01*
X114400490Y-61797534D01*
X114392475Y-61799980D01*
X114384492Y-61802635D01*
X114376539Y-61805503D01*
X114368547Y-61808806D01*
X114360695Y-61812265D01*
X114352982Y-61815884D01*
X114345409Y-61819663D01*
X114337975Y-61823605D01*
X114330681Y-61827712D01*
X114323527Y-61831985D01*
X114316512Y-61836427D01*
X114309636Y-61841039D01*
X114302900Y-61845824D01*
X114296303Y-61850783D01*
X114289846Y-61855919D01*
X114283529Y-61861233D01*
X114277351Y-61866728D01*
X114271313Y-61872404D01*
X114265414Y-61878265D01*
X114259073Y-61884001D01*
X114252952Y-61889799D01*
X114247052Y-61895659D01*
X114241374Y-61901581D01*
X114235921Y-61907565D01*
X114230695Y-61913611D01*
X114225698Y-61919719D01*
X114220931Y-61925889D01*
X114216397Y-61932121D01*
X114212097Y-61938416D01*
X114208033Y-61944772D01*
X114204208Y-61951190D01*
X114200623Y-61957670D01*
X114197281Y-61964213D01*
X114194183Y-61970817D01*
X114191330Y-61977483D01*
X114186278Y-61990246D01*
X114181543Y-62002692D01*
X114177134Y-62014749D01*
X114173058Y-62026350D01*
X114169323Y-62037423D01*
X114165937Y-62047899D01*
X114162908Y-62057708D01*
X114160242Y-62066782D01*
X114157727Y-62076678D01*
X114155622Y-62086552D01*
X114153905Y-62096442D01*
X114152553Y-62106386D01*
X114151541Y-62116423D01*
X114150847Y-62126592D01*
X114150448Y-62136931D01*
X114150328Y-62146835D01*
X114150318Y-62146158D01*
X113963281Y-62146158D01*
X113963322Y-62142977D01*
X113963901Y-62127981D01*
X113964864Y-62113070D01*
X113966208Y-62098241D01*
X113967933Y-62083490D01*
X113970035Y-62068812D01*
X113972513Y-62054204D01*
X113975366Y-62039661D01*
X113978590Y-62025181D01*
X113982184Y-62010759D01*
X113986147Y-61996391D01*
X113990476Y-61982074D01*
X113995169Y-61967803D01*
X114000224Y-61953574D01*
X114005640Y-61939384D01*
X114011415Y-61925230D01*
X114017492Y-61911331D01*
X114023820Y-61897667D01*
X114030399Y-61884236D01*
X114037232Y-61871042D01*
X114044321Y-61858083D01*
X114051668Y-61845362D01*
X114059275Y-61832880D01*
X114067143Y-61820637D01*
X114075274Y-61808634D01*
X114083672Y-61796872D01*
X114092336Y-61785353D01*
X114101270Y-61774076D01*
X114110475Y-61763044D01*
X114119954Y-61752257D01*
X114129708Y-61741716D01*
X114139738Y-61731422D01*
X114149660Y-61721439D01*
X114159582Y-61711831D01*
X114169504Y-61702604D01*
X114179425Y-61693760D01*
X114189347Y-61685304D01*
X114199269Y-61677239D01*
X114209191Y-61669569D01*
X114219113Y-61662299D01*
X114229034Y-61655432D01*
X114238956Y-61648972D01*
X114248878Y-61642922D01*
X114258800Y-61637288D01*
X114268722Y-61632072D01*
X114278644Y-61627278D01*
X114288566Y-61622911D01*
X114298488Y-61618974D01*
X114317113Y-61611601D01*
X114335250Y-61604887D01*
X114352845Y-61598871D01*
X114369842Y-61593591D01*
X114386189Y-61589086D01*
X114401830Y-61585395D01*
X114409369Y-61583867D01*
X114416711Y-61582557D01*
X114423850Y-61581469D01*
X114430779Y-61580610D01*
X114444916Y-61578474D01*
X114459046Y-61576548D01*
X114473160Y-61574855D01*
X114487251Y-61573417D01*
X114501311Y-61572259D01*
X114515332Y-61571403D01*
X114529307Y-61570872D01*
X114543227Y-61570690D01*
X114555256Y-61572256D01*
X114567528Y-61574227D01*
X114580036Y-61576605D01*
X114592774Y-61579392D01*
X114605738Y-61582590D01*
X114618920Y-61586201D01*
X114632315Y-61590226D01*
X114645918Y-61594668D01*
X114659723Y-61599528D01*
X114673723Y-61604809D01*
X114687913Y-61610513D01*
X114702287Y-61616640D01*
X114716840Y-61623195D01*
X114731564Y-61630177D01*
X114746456Y-61637590D01*
X114761508Y-61645435D01*
X114776189Y-61653527D01*
X114790465Y-61661925D01*
X114804334Y-61670625D01*
X114817794Y-61679624D01*
X114830844Y-61688918D01*
X114843480Y-61698502D01*
X114855702Y-61708373D01*
X114867507Y-61718526D01*
X114878894Y-61728959D01*
X114889860Y-61739667D01*
X114900403Y-61750646D01*
X114910523Y-61761893D01*
X114920215Y-61773403D01*
X114929480Y-61785173D01*
X114938314Y-61797199D01*
X114946717Y-61809476D01*
X114962182Y-61834408D01*
X114976307Y-61858610D01*
X114989052Y-61882100D01*
X114994895Y-61893582D01*
X115000378Y-61904892D01*
X115005497Y-61916031D01*
X115010247Y-61927002D01*
X115014623Y-61937806D01*
X115018620Y-61948445D01*
X115022233Y-61958921D01*
X115025458Y-61969237D01*
X115028289Y-61979393D01*
X115030722Y-61989393D01*
X115035373Y-62009578D01*
X115039404Y-62030445D01*
X115042815Y-62051995D01*
X115045605Y-62074226D01*
X115047776Y-62097140D01*
X115049326Y-62120735D01*
X115050256Y-62145013D01*
X115050566Y-62169973D01*
X115050372Y-62187236D01*
X115049788Y-62204304D01*
X115048813Y-62221182D01*
X115047445Y-62237875D01*
X115045681Y-62254390D01*
X115043520Y-62270733D01*
X115040960Y-62286910D01*
X115037999Y-62302925D01*
X115034634Y-62318785D01*
X115030865Y-62334496D01*
X115026688Y-62350064D01*
X115022103Y-62365494D01*
X115017107Y-62380793D01*
X115011698Y-62395966D01*
X115005874Y-62411018D01*
X114999634Y-62425956D01*
X114992953Y-62439845D01*
X114986055Y-62453479D01*
X114978942Y-62466848D01*
X114971615Y-62479947D01*
X114964075Y-62492766D01*
X114956323Y-62505299D01*
X114948359Y-62517537D01*
X114940186Y-62529473D01*
X114931802Y-62541099D01*
X114923211Y-62552407D01*
X114914412Y-62563389D01*
X114905407Y-62574039D01*
X114896197Y-62584347D01*
X114886782Y-62594306D01*
X114877163Y-62603909D01*
X114867342Y-62613147D01*
X114857148Y-62622039D01*
X114846903Y-62630606D01*
X114836601Y-62638852D01*
X114826238Y-62646778D01*
X114815810Y-62654387D01*
X114805311Y-62661679D01*
X114794736Y-62668658D01*
X114784080Y-62675325D01*
X114773340Y-62681681D01*
X114762509Y-62687730D01*
X114751584Y-62693472D01*
X114740558Y-62698910D01*
X114729428Y-62704045D01*
X114718189Y-62708880D01*
X114706835Y-62713417D01*
X114695362Y-62717657D01*
X114684231Y-62721975D01*
X114673160Y-62726000D01*
X114662146Y-62729735D01*
X114651189Y-62733181D01*
X114640287Y-62736340D01*
X114629436Y-62739214D01*
X114618636Y-62741806D01*
X114607885Y-62744116D01*
X114597179Y-62746147D01*
X114586519Y-62747902D01*
X114575901Y-62749381D01*
X114565324Y-62750586D01*
X114554785Y-62751521D01*
X114544284Y-62752186D01*
X114533817Y-62752583D01*
X114523383Y-62752716D01*
X114514120Y-62752605D01*
X114501414Y-62752453D01*
X114480151Y-62751667D01*
G37*
G36*
X111656622Y-51795660D02*
G01*
X113297038Y-51222173D01*
X113297038Y-51855190D01*
X113090002Y-51908105D01*
X113090002Y-52352605D01*
X113297038Y-52402214D01*
X113297038Y-53035890D01*
X112701065Y-52823455D01*
X111656622Y-52451162D01*
X111656622Y-52136306D01*
X112154039Y-52136306D01*
X112154370Y-52135977D01*
X112154700Y-52135646D01*
X112188373Y-52137962D01*
X112205837Y-52139461D01*
X112223657Y-52141269D01*
X112241788Y-52143450D01*
X112260182Y-52146065D01*
X112278793Y-52149176D01*
X112297575Y-52152845D01*
X112339495Y-52160989D01*
X112389849Y-52171861D01*
X112418188Y-52178476D01*
X112448636Y-52185959D01*
X112481192Y-52194372D01*
X112515857Y-52203777D01*
X112701065Y-52252725D01*
X112701065Y-52007984D01*
X112515857Y-52058916D01*
X112481189Y-52067938D01*
X112448615Y-52076155D01*
X112418118Y-52083565D01*
X112389683Y-52090169D01*
X112363295Y-52095967D01*
X112338937Y-52100959D01*
X112316595Y-52105145D01*
X112296253Y-52108524D01*
X112277716Y-52111975D01*
X112259335Y-52114922D01*
X112241140Y-52117419D01*
X112223161Y-52119521D01*
X112205431Y-52121282D01*
X112187980Y-52122756D01*
X112154039Y-52125061D01*
X112154039Y-52136306D01*
X111656622Y-52136306D01*
X111656622Y-51795660D01*
G37*
G36*
X111656622Y-64219831D02*
G01*
X113297038Y-63646345D01*
X113297038Y-64280021D01*
X113090002Y-64332937D01*
X113090002Y-64778100D01*
X113297038Y-64827709D01*
X113297038Y-65461385D01*
X112701065Y-65248709D01*
X111656622Y-64875993D01*
X111656622Y-64561140D01*
X112154039Y-64561140D01*
X112154700Y-64562463D01*
X112188373Y-64565047D01*
X112205837Y-64566533D01*
X112223657Y-64568251D01*
X112241788Y-64570279D01*
X112260182Y-64572695D01*
X112278793Y-64575576D01*
X112297575Y-64579000D01*
X112339495Y-64587144D01*
X112389849Y-64598017D01*
X112418188Y-64604631D01*
X112448636Y-64612114D01*
X112481192Y-64620527D01*
X112515857Y-64629932D01*
X112701065Y-64678878D01*
X112701065Y-64434139D01*
X112515857Y-64484411D01*
X112448615Y-64501278D01*
X112418118Y-64508595D01*
X112389683Y-64515168D01*
X112363295Y-64520997D01*
X112338937Y-64526082D01*
X112316595Y-64530423D01*
X112296253Y-64534019D01*
X112277716Y-64537278D01*
X112259335Y-64540127D01*
X112241140Y-64542588D01*
X112223161Y-64544685D01*
X112205431Y-64546441D01*
X112187980Y-64547879D01*
X112170839Y-64549022D01*
X112154039Y-64549894D01*
X112154039Y-64561140D01*
X111656622Y-64561140D01*
X111656622Y-64219831D01*
G37*
D10*
X96965083Y-61665001D02*
X93335000Y-61665001D01*
D11*
G36*
X113297038Y-77802874D02*
G01*
X113297038Y-78351884D01*
X111656622Y-78977624D01*
X111656622Y-78338655D01*
X112250611Y-78164030D01*
X112313212Y-78146398D01*
X112370914Y-78131122D01*
X112423531Y-78118079D01*
X112470877Y-78107144D01*
X112492961Y-78102894D01*
X112514595Y-78099062D01*
X112535826Y-78095634D01*
X112556701Y-78092592D01*
X112577266Y-78089923D01*
X112597567Y-78087611D01*
X112617651Y-78085639D01*
X112637564Y-78083993D01*
X112637564Y-78072749D01*
X112616768Y-78069971D01*
X112595593Y-78066651D01*
X112574092Y-78062866D01*
X112552319Y-78058693D01*
X112508177Y-78049494D01*
X112463601Y-78039676D01*
X112416596Y-78028545D01*
X112367855Y-78016112D01*
X112317377Y-78002562D01*
X112265163Y-77988082D01*
X111656622Y-77804859D01*
X111656622Y-77181103D01*
X113297038Y-77802874D01*
G37*
G36*
X113297038Y-79777988D02*
G01*
X111656622Y-79777988D01*
X111656622Y-79179368D01*
X113297038Y-79179368D01*
X113297038Y-79777988D01*
G37*
G36*
X113984295Y-59212589D02*
G01*
X115026092Y-58734354D01*
X115026092Y-58964542D01*
X114756877Y-59087572D01*
X114756877Y-59491062D01*
X115025430Y-59615417D01*
X115025430Y-59846927D01*
X114569023Y-59640602D01*
X113983632Y-59375968D01*
X113983965Y-59293947D01*
X114254831Y-59293947D01*
X114569023Y-59413009D01*
X114569023Y-59171577D01*
X114254831Y-59293947D01*
X113983965Y-59293947D01*
X113984295Y-59212589D01*
G37*
G36*
X83630084Y-58034917D02*
G01*
X83630084Y-61665001D01*
X80000000Y-61665001D01*
X80000000Y-60961209D01*
X80703792Y-60961209D01*
X82926292Y-60961209D01*
X82926292Y-58738709D01*
X80703792Y-58738709D01*
X80703792Y-60961209D01*
X80000000Y-60961209D01*
X80000000Y-58034917D01*
X83630084Y-58034917D01*
G37*
D10*
X80000000Y-71369917D02*
X83630084Y-71369917D01*
D11*
G36*
X96965083Y-58034917D02*
G01*
X96965083Y-61665001D01*
X93335000Y-61665001D01*
X93335000Y-60961209D01*
X94038792Y-60961209D01*
X96261291Y-60961209D01*
X96261291Y-58738709D01*
X94038792Y-58738709D01*
X94038792Y-60961209D01*
X93335000Y-60961209D01*
X93335000Y-58034917D01*
X96965083Y-58034917D01*
G37*
G36*
X113297038Y-72235380D02*
G01*
X111656622Y-72235380D01*
X111656622Y-71638083D01*
X113297038Y-71638083D01*
X113297038Y-72235380D01*
G37*
G36*
X110799343Y-67882383D02*
G01*
X110794061Y-67964655D01*
X110786859Y-68046432D01*
X110777761Y-68127693D01*
X110766791Y-68208415D01*
X110753974Y-68288576D01*
X110739332Y-68368154D01*
X110722892Y-68447126D01*
X110704676Y-68525470D01*
X110684709Y-68603164D01*
X110663016Y-68680185D01*
X110639620Y-68756512D01*
X110614546Y-68832122D01*
X110587818Y-68906993D01*
X110559461Y-68981102D01*
X110529498Y-69054427D01*
X105823222Y-69054427D01*
X105784628Y-69055873D01*
X105743701Y-69060326D01*
X105701097Y-69067952D01*
X105657475Y-69078921D01*
X105613492Y-69093402D01*
X105569807Y-69111563D01*
X105548282Y-69122076D01*
X105527077Y-69133572D01*
X105506276Y-69146073D01*
X105485961Y-69159599D01*
X105466213Y-69174171D01*
X105447115Y-69189811D01*
X105428750Y-69206539D01*
X105411199Y-69224378D01*
X105394545Y-69243347D01*
X105378870Y-69263467D01*
X105364256Y-69284761D01*
X105350785Y-69307248D01*
X105338541Y-69330951D01*
X105327604Y-69355890D01*
X105318057Y-69382086D01*
X105309983Y-69409560D01*
X105303464Y-69438334D01*
X105298581Y-69468428D01*
X105295417Y-69499863D01*
X105294055Y-69532661D01*
X105294055Y-71318598D01*
X104950097Y-71318598D01*
X104950097Y-68171380D01*
X104951090Y-68124911D01*
X104954133Y-68081721D01*
X104956453Y-68061344D01*
X104959323Y-68041771D01*
X104962754Y-68023000D01*
X104966757Y-68005023D01*
X104971346Y-67987837D01*
X104976532Y-67971437D01*
X104982328Y-67955818D01*
X104988746Y-67940975D01*
X104995797Y-67926904D01*
X105003493Y-67913599D01*
X105011848Y-67901055D01*
X105020873Y-67889268D01*
X105030580Y-67878233D01*
X105040981Y-67867945D01*
X105052088Y-67858399D01*
X105063914Y-67849591D01*
X105076471Y-67841515D01*
X105089770Y-67834167D01*
X105103824Y-67827541D01*
X105118645Y-67821634D01*
X105134245Y-67816439D01*
X105150636Y-67811953D01*
X105167830Y-67808171D01*
X105185839Y-67805087D01*
X105204677Y-67802697D01*
X105224353Y-67800995D01*
X105244882Y-67799978D01*
X105266274Y-67799640D01*
X110802679Y-67799640D01*
X110799343Y-67882383D01*
G37*
D10*
X83630084Y-71369917D02*
X83630084Y-71369917D01*
D11*
G36*
X111656622Y-74783318D02*
G01*
X111657187Y-74743476D01*
X111658881Y-74704816D01*
X111661702Y-74667343D01*
X111665645Y-74631059D01*
X111670708Y-74595968D01*
X111676888Y-74562076D01*
X111684183Y-74529384D01*
X111692589Y-74497899D01*
X111702103Y-74467622D01*
X111712723Y-74438558D01*
X111724446Y-74410712D01*
X111737269Y-74384086D01*
X111751188Y-74358685D01*
X111766201Y-74334513D01*
X111782305Y-74311573D01*
X111799498Y-74289870D01*
X111817620Y-74269103D01*
X111836761Y-74249711D01*
X111856918Y-74231689D01*
X111878087Y-74215032D01*
X111900263Y-74199735D01*
X111923443Y-74185795D01*
X111947623Y-74173204D01*
X111972799Y-74161960D01*
X111998968Y-74152057D01*
X112026124Y-74143489D01*
X112054265Y-74136254D01*
X112083387Y-74130344D01*
X112113485Y-74125756D01*
X112144556Y-74122485D01*
X112176596Y-74120526D01*
X112209601Y-74119874D01*
X112231276Y-74120201D01*
X112252404Y-74121182D01*
X112272994Y-74122822D01*
X112293059Y-74125125D01*
X112312608Y-74128094D01*
X112331652Y-74131734D01*
X112350202Y-74136049D01*
X112368269Y-74141041D01*
X112385862Y-74146716D01*
X112402994Y-74153077D01*
X112419674Y-74160127D01*
X112435913Y-74167872D01*
X112451722Y-74176314D01*
X112467112Y-74185457D01*
X112482092Y-74195306D01*
X112496674Y-74205864D01*
X112510332Y-74216669D01*
X112523276Y-74227994D01*
X112535505Y-74239832D01*
X112547018Y-74252177D01*
X112557813Y-74265022D01*
X112567891Y-74278360D01*
X112577250Y-74292185D01*
X112585889Y-74306489D01*
X112593807Y-74321266D01*
X112601003Y-74336509D01*
X112607476Y-74352212D01*
X112613225Y-74368366D01*
X112618250Y-74384967D01*
X112622549Y-74402007D01*
X112626122Y-74419478D01*
X112628966Y-74437376D01*
X113297038Y-73998827D01*
X113297038Y-74658963D01*
X112754643Y-74945375D01*
X113297038Y-74945375D01*
X113297038Y-75524150D01*
X111656622Y-75524150D01*
X111656622Y-74946035D01*
X112078633Y-74946035D01*
X112399441Y-74947359D01*
X112399441Y-74856078D01*
X112399271Y-74845909D01*
X112398764Y-74835992D01*
X112397923Y-74826334D01*
X112396753Y-74816938D01*
X112395258Y-74807809D01*
X112393441Y-74798953D01*
X112391306Y-74790374D01*
X112388857Y-74782077D01*
X112386098Y-74774066D01*
X112383033Y-74766348D01*
X112379666Y-74758925D01*
X112376000Y-74751805D01*
X112372039Y-74744990D01*
X112367788Y-74738486D01*
X112363251Y-74732298D01*
X112358430Y-74726431D01*
X112353097Y-74721115D01*
X112347515Y-74716086D01*
X112341682Y-74711351D01*
X112335599Y-74706918D01*
X112329264Y-74702796D01*
X112322676Y-74698991D01*
X112315834Y-74695512D01*
X112308738Y-74692366D01*
X112301385Y-74689562D01*
X112293776Y-74687106D01*
X112285909Y-74685006D01*
X112277784Y-74683271D01*
X112269398Y-74681908D01*
X112260752Y-74680925D01*
X112251845Y-74680330D01*
X112242675Y-74680130D01*
X112232689Y-74680330D01*
X112223063Y-74680925D01*
X112213787Y-74681908D01*
X112204847Y-74683271D01*
X112196234Y-74685006D01*
X112187934Y-74687106D01*
X112179936Y-74689562D01*
X112172229Y-74692366D01*
X112164802Y-74695512D01*
X112157641Y-74698991D01*
X112150737Y-74702796D01*
X112144076Y-74706918D01*
X112137648Y-74711351D01*
X112131441Y-74716086D01*
X112125444Y-74721115D01*
X112119644Y-74726431D01*
X112114605Y-74732189D01*
X112109905Y-74738295D01*
X112105542Y-74744740D01*
X112101515Y-74751515D01*
X112097821Y-74758612D01*
X112094459Y-74766022D01*
X112091426Y-74773736D01*
X112088720Y-74781745D01*
X112086340Y-74790042D01*
X112084283Y-74798616D01*
X112082549Y-74807460D01*
X112081134Y-74816565D01*
X112080037Y-74825921D01*
X112079255Y-74835521D01*
X112078788Y-74845355D01*
X112078633Y-74855415D01*
X112078633Y-74946035D01*
X111656622Y-74946035D01*
X111656622Y-74783318D01*
G37*
G36*
X113296378Y-56450340D02*
G01*
X112446403Y-56954370D01*
X112459980Y-56952011D01*
X112473905Y-56949885D01*
X112488156Y-56947975D01*
X112502710Y-56946268D01*
X112517542Y-56944746D01*
X112532630Y-56943394D01*
X112563481Y-56941141D01*
X112630371Y-56938329D01*
X112666638Y-56937047D01*
X112685775Y-56936654D01*
X112705695Y-56936510D01*
X113297038Y-56936510D01*
X113297038Y-57505365D01*
X111656622Y-57505365D01*
X111656622Y-56927251D01*
X112515195Y-56419252D01*
X112501002Y-56421611D01*
X112486236Y-56423738D01*
X112470942Y-56425647D01*
X112455168Y-56427355D01*
X112438960Y-56428877D01*
X112422364Y-56430228D01*
X112388195Y-56432481D01*
X112308324Y-56435293D01*
X112260203Y-56436575D01*
X112207617Y-56437112D01*
X111655961Y-56437112D01*
X111655961Y-55868257D01*
X113296378Y-55868257D01*
X113296378Y-56450340D01*
G37*
G36*
X113297038Y-55436985D02*
G01*
X111656622Y-55436985D01*
X111656622Y-54838367D01*
X113297038Y-54838367D01*
X113297038Y-55436985D01*
G37*
G36*
X114280629Y-60354929D02*
G01*
X114265119Y-60371322D01*
X114250588Y-60388009D01*
X114237040Y-60404986D01*
X114224478Y-60422252D01*
X114212903Y-60439805D01*
X114202320Y-60457643D01*
X114192731Y-60475764D01*
X114184139Y-60494165D01*
X114176547Y-60512846D01*
X114169958Y-60531804D01*
X114164374Y-60551037D01*
X114159800Y-60570543D01*
X114156236Y-60590321D01*
X114153688Y-60610367D01*
X114152156Y-60630682D01*
X114151645Y-60651262D01*
X114151807Y-60663659D01*
X114152317Y-60676025D01*
X114153215Y-60688330D01*
X114154539Y-60700541D01*
X114156328Y-60712628D01*
X114157409Y-60718615D01*
X114158621Y-60724560D01*
X114159969Y-60730458D01*
X114161457Y-60736306D01*
X114163090Y-60742099D01*
X114164873Y-60747835D01*
X114168249Y-60759422D01*
X114172408Y-60771823D01*
X114177326Y-60784984D01*
X114182981Y-60798850D01*
X114189349Y-60813368D01*
X114196407Y-60828482D01*
X114204131Y-60844139D01*
X114212499Y-60860284D01*
X114217375Y-60868539D01*
X114222580Y-60876686D01*
X114228116Y-60884724D01*
X114233986Y-60892653D01*
X114240194Y-60900474D01*
X114246741Y-60908187D01*
X114253632Y-60915791D01*
X114260868Y-60923286D01*
X114268454Y-60930674D01*
X114276391Y-60937952D01*
X114284682Y-60945122D01*
X114293331Y-60952184D01*
X114302341Y-60959137D01*
X114311714Y-60965981D01*
X114321453Y-60972717D01*
X114331561Y-60979345D01*
X114341559Y-60985607D01*
X114351702Y-60991494D01*
X114361981Y-60997000D01*
X114372386Y-61002123D01*
X114382907Y-61006859D01*
X114393535Y-61011203D01*
X114404259Y-61015151D01*
X114415071Y-61018701D01*
X114425960Y-61021847D01*
X114436917Y-61024587D01*
X114447932Y-61026915D01*
X114458996Y-61028829D01*
X114470099Y-61030325D01*
X114481230Y-61031397D01*
X114492381Y-61032044D01*
X114503541Y-61032260D01*
X114522578Y-61031781D01*
X114541240Y-61030346D01*
X114559524Y-61027961D01*
X114577428Y-61024633D01*
X114594947Y-61020367D01*
X114612080Y-61015169D01*
X114628824Y-61009044D01*
X114645175Y-61001999D01*
X114661131Y-60994039D01*
X114676689Y-60985171D01*
X114691845Y-60975399D01*
X114706598Y-60964731D01*
X114720944Y-60953171D01*
X114734879Y-60940725D01*
X114748402Y-60927399D01*
X114761509Y-60913200D01*
X114773873Y-60898347D01*
X114785419Y-60883305D01*
X114796148Y-60868069D01*
X114806065Y-60852635D01*
X114815171Y-60836999D01*
X114823471Y-60821158D01*
X114830966Y-60805108D01*
X114837660Y-60788845D01*
X114843555Y-60772365D01*
X114848655Y-60755664D01*
X114852962Y-60738738D01*
X114856480Y-60721583D01*
X114859211Y-60704196D01*
X114861158Y-60686572D01*
X114862324Y-60668708D01*
X114862712Y-60650600D01*
X114862603Y-60640120D01*
X114862273Y-60629766D01*
X114861718Y-60619537D01*
X114860935Y-60609435D01*
X114859919Y-60599461D01*
X114858666Y-60589616D01*
X114857173Y-60579901D01*
X114855436Y-60570317D01*
X114853451Y-60560864D01*
X114851214Y-60551544D01*
X114848722Y-60542358D01*
X114845969Y-60533306D01*
X114842953Y-60524390D01*
X114839670Y-60515611D01*
X114836115Y-60506969D01*
X114832285Y-60498466D01*
X114828543Y-60489699D01*
X114824514Y-60481011D01*
X114820209Y-60472402D01*
X114815635Y-60463874D01*
X114810801Y-60455427D01*
X114805717Y-60447062D01*
X114800390Y-60438781D01*
X114794830Y-60430584D01*
X114789045Y-60422472D01*
X114783044Y-60414446D01*
X114776835Y-60406508D01*
X114770428Y-60398658D01*
X114763831Y-60390897D01*
X114757053Y-60383226D01*
X114750102Y-60375646D01*
X114742988Y-60368158D01*
X114742988Y-60123418D01*
X114756738Y-60130293D01*
X114770203Y-60137522D01*
X114783378Y-60145102D01*
X114796256Y-60153029D01*
X114808831Y-60161301D01*
X114821099Y-60169916D01*
X114833053Y-60178869D01*
X114844687Y-60188159D01*
X114855995Y-60197781D01*
X114866972Y-60207735D01*
X114877612Y-60218016D01*
X114887909Y-60228621D01*
X114897857Y-60239548D01*
X114907450Y-60250794D01*
X114916683Y-60262356D01*
X114925550Y-60274230D01*
X114934511Y-60286555D01*
X114943040Y-60298725D01*
X114951138Y-60310740D01*
X114958808Y-60322600D01*
X114966052Y-60334304D01*
X114972872Y-60345854D01*
X114979269Y-60357249D01*
X114985246Y-60368489D01*
X114990804Y-60379574D01*
X114995946Y-60390503D01*
X115000672Y-60401278D01*
X115004986Y-60411898D01*
X115008890Y-60422362D01*
X115012384Y-60432671D01*
X115015471Y-60442826D01*
X115018154Y-60452825D01*
X115022926Y-60471985D01*
X115027311Y-60490270D01*
X115031292Y-60507671D01*
X115034855Y-60524180D01*
X115037984Y-60539790D01*
X115040664Y-60554493D01*
X115042878Y-60568281D01*
X115044611Y-60581148D01*
X115045978Y-60593405D01*
X115047113Y-60605415D01*
X115048030Y-60617239D01*
X115048746Y-60628938D01*
X115049275Y-60640575D01*
X115049635Y-60652213D01*
X115049839Y-60663913D01*
X115049903Y-60675737D01*
X115048198Y-60695564D01*
X115046059Y-60715111D01*
X115043485Y-60734375D01*
X115040478Y-60753354D01*
X115037036Y-60772046D01*
X115033160Y-60790449D01*
X115028850Y-60808562D01*
X115024106Y-60826382D01*
X115018928Y-60843908D01*
X115013316Y-60861137D01*
X115007270Y-60878067D01*
X115000790Y-60894698D01*
X114993876Y-60911026D01*
X114986528Y-60927050D01*
X114978745Y-60942767D01*
X114970529Y-60958177D01*
X114961893Y-60973424D01*
X114953097Y-60988159D01*
X114944137Y-61002380D01*
X114935006Y-61016086D01*
X114925702Y-61029277D01*
X114916218Y-61041952D01*
X114906550Y-61054109D01*
X114896694Y-61065748D01*
X114886643Y-61076867D01*
X114876394Y-61087466D01*
X114865941Y-61097544D01*
X114855280Y-61107099D01*
X114844406Y-61116131D01*
X114833314Y-61124639D01*
X114821999Y-61132622D01*
X114810456Y-61140079D01*
X114787422Y-61153250D01*
X114764970Y-61165451D01*
X114743122Y-61176646D01*
X114721903Y-61186794D01*
X114701334Y-61195856D01*
X114681440Y-61203795D01*
X114671753Y-61207331D01*
X114662243Y-61210571D01*
X114652914Y-61213511D01*
X114643768Y-61216146D01*
X114625039Y-61221072D01*
X114606054Y-61225417D01*
X114586806Y-61229157D01*
X114567287Y-61232269D01*
X114547488Y-61234730D01*
X114527403Y-61236517D01*
X114507023Y-61237606D01*
X114486341Y-61237974D01*
X114476286Y-61237876D01*
X114466425Y-61237560D01*
X114456703Y-61236997D01*
X114447067Y-61236155D01*
X114437462Y-61235002D01*
X114427833Y-61233509D01*
X114418127Y-61231643D01*
X114408289Y-61229373D01*
X114398310Y-61227020D01*
X114387246Y-61223938D01*
X114375128Y-61220143D01*
X114361987Y-61215650D01*
X114347853Y-61210474D01*
X114332759Y-61204632D01*
X114316734Y-61198139D01*
X114299810Y-61191011D01*
X114290834Y-61187104D01*
X114281770Y-61182827D01*
X114272620Y-61178182D01*
X114263388Y-61173171D01*
X114254080Y-61167796D01*
X114244697Y-61162058D01*
X114235245Y-61155960D01*
X114225727Y-61149503D01*
X114216147Y-61142690D01*
X114206508Y-61135522D01*
X114196816Y-61128002D01*
X114187073Y-61120130D01*
X114177283Y-61111910D01*
X114167451Y-61103343D01*
X114157580Y-61094431D01*
X114147674Y-61085176D01*
X114137846Y-61075858D01*
X114128208Y-61066258D01*
X114118763Y-61056370D01*
X114109516Y-61046192D01*
X114100471Y-61035719D01*
X114091631Y-61024948D01*
X114083000Y-61013875D01*
X114074583Y-61002495D01*
X114066383Y-60990805D01*
X114058403Y-60978801D01*
X114050648Y-60966480D01*
X114043122Y-60953837D01*
X114035829Y-60940868D01*
X114028772Y-60927569D01*
X114021955Y-60913938D01*
X114015382Y-60899969D01*
X114009120Y-60886094D01*
X114003233Y-60872004D01*
X113997726Y-60857701D01*
X113992603Y-60843187D01*
X113987868Y-60828463D01*
X113983524Y-60813532D01*
X113979575Y-60798396D01*
X113976025Y-60783056D01*
X113972879Y-60767514D01*
X113970139Y-60751773D01*
X113967811Y-60735835D01*
X113965897Y-60719701D01*
X113964402Y-60703373D01*
X113963329Y-60686853D01*
X113962682Y-60670143D01*
X113962466Y-60653245D01*
X113963790Y-60653909D01*
X113963921Y-60641009D01*
X113964338Y-60628101D01*
X113965081Y-60615178D01*
X113966187Y-60602232D01*
X113967698Y-60589255D01*
X113969649Y-60576239D01*
X113972082Y-60563176D01*
X113975034Y-60550060D01*
X113977445Y-60537037D01*
X113980677Y-60522774D01*
X113984685Y-60507271D01*
X113989421Y-60490528D01*
X113994839Y-60472544D01*
X114000893Y-60453321D01*
X114014722Y-60411153D01*
X114018948Y-60400371D01*
X114023443Y-60389602D01*
X114028213Y-60378844D01*
X114033264Y-60368096D01*
X114038602Y-60357356D01*
X114044232Y-60346622D01*
X114050161Y-60335892D01*
X114056394Y-60325163D01*
X114062938Y-60314435D01*
X114069797Y-60303705D01*
X114076977Y-60292970D01*
X114084486Y-60282230D01*
X114092327Y-60271482D01*
X114100508Y-60260725D01*
X114109033Y-60249956D01*
X114117910Y-60239173D01*
X114127026Y-60228258D01*
X114136269Y-60217830D01*
X114145642Y-60207881D01*
X114155148Y-60198401D01*
X114164790Y-60189383D01*
X114174570Y-60180817D01*
X114184491Y-60172695D01*
X114194557Y-60165008D01*
X114204770Y-60157748D01*
X114215133Y-60150905D01*
X114225649Y-60144470D01*
X114236321Y-60138436D01*
X114247153Y-60132794D01*
X114258146Y-60127534D01*
X114269303Y-60122648D01*
X114280629Y-60118127D01*
X114280629Y-60354929D01*
G37*
G36*
X114658983Y-67376966D02*
G01*
X114494941Y-67376966D01*
X114494941Y-66951650D01*
X114658983Y-66951650D01*
X114658983Y-67376966D01*
G37*
D10*
X83630084Y-61665001D02*
X80000000Y-61665001D01*
D11*
G36*
X114774950Y-67821818D02*
G01*
X114789479Y-67822859D01*
X114803765Y-67824587D01*
X114817804Y-67826999D01*
X114831591Y-67830089D01*
X114845121Y-67833852D01*
X114858390Y-67838284D01*
X114871392Y-67843380D01*
X114884123Y-67849135D01*
X114896578Y-67855543D01*
X114908752Y-67862601D01*
X114920640Y-67870303D01*
X114932237Y-67878645D01*
X114943539Y-67887621D01*
X114954541Y-67897228D01*
X114965237Y-67907459D01*
X114975562Y-67918465D01*
X114985207Y-67929656D01*
X114994174Y-67941029D01*
X115002464Y-67952582D01*
X115010080Y-67964314D01*
X115017024Y-67976221D01*
X115023297Y-67988304D01*
X115028902Y-68000558D01*
X115033840Y-68012984D01*
X115038113Y-68025577D01*
X115041724Y-68038338D01*
X115044674Y-68051263D01*
X115046964Y-68064351D01*
X115048598Y-68077600D01*
X115049577Y-68091008D01*
X115049903Y-68104573D01*
X115049623Y-68122254D01*
X115048781Y-68139577D01*
X115047370Y-68156542D01*
X115045387Y-68173147D01*
X115042826Y-68189392D01*
X115039683Y-68205276D01*
X115035953Y-68220797D01*
X115031631Y-68235955D01*
X115026711Y-68250748D01*
X115021191Y-68265177D01*
X115015063Y-68279238D01*
X115008324Y-68292933D01*
X115000969Y-68306260D01*
X114992993Y-68319217D01*
X114984391Y-68331804D01*
X114975158Y-68344020D01*
X114965694Y-68355780D01*
X114955905Y-68366753D01*
X114945792Y-68376943D01*
X114935357Y-68386354D01*
X114924600Y-68394989D01*
X114913523Y-68402854D01*
X114902125Y-68409951D01*
X114890409Y-68416285D01*
X114878375Y-68421858D01*
X114866024Y-68426677D01*
X114853358Y-68430743D01*
X114840376Y-68434061D01*
X114827080Y-68436635D01*
X114813472Y-68438469D01*
X114799551Y-68439566D01*
X114785320Y-68439931D01*
X114785320Y-68232234D01*
X114789125Y-68231862D01*
X114792853Y-68231247D01*
X114796501Y-68230391D01*
X114800068Y-68229298D01*
X114803554Y-68227974D01*
X114806958Y-68226420D01*
X114810278Y-68224642D01*
X114813514Y-68222643D01*
X114816665Y-68220427D01*
X114819730Y-68217997D01*
X114822707Y-68215358D01*
X114825597Y-68212514D01*
X114828397Y-68209469D01*
X114831107Y-68206225D01*
X114833726Y-68202788D01*
X114836253Y-68199161D01*
X114838911Y-68194951D01*
X114841425Y-68190754D01*
X114843793Y-68186567D01*
X114846009Y-68182387D01*
X114848070Y-68178210D01*
X114849973Y-68174034D01*
X114851712Y-68169857D01*
X114853285Y-68165675D01*
X114854688Y-68161485D01*
X114855916Y-68157284D01*
X114856965Y-68153069D01*
X114857833Y-68148839D01*
X114858514Y-68144588D01*
X114859006Y-68140316D01*
X114859304Y-68136018D01*
X114859404Y-68131692D01*
X114859273Y-68125584D01*
X114858882Y-68119663D01*
X114858235Y-68113930D01*
X114857337Y-68108386D01*
X114856190Y-68103032D01*
X114854800Y-68097868D01*
X114853169Y-68092897D01*
X114851301Y-68088118D01*
X114849201Y-68083533D01*
X114846872Y-68079143D01*
X114844319Y-68074949D01*
X114841544Y-68070951D01*
X114838553Y-68067151D01*
X114835348Y-68063550D01*
X114831934Y-68060148D01*
X114828315Y-68056947D01*
X114823997Y-68053925D01*
X114819475Y-68051063D01*
X114814745Y-68048365D01*
X114809805Y-68045837D01*
X114804652Y-68043483D01*
X114799282Y-68041308D01*
X114793694Y-68039318D01*
X114787884Y-68037517D01*
X114781849Y-68035909D01*
X114775586Y-68034500D01*
X114769093Y-68033294D01*
X114762366Y-68032297D01*
X114755403Y-68031513D01*
X114748200Y-68030947D01*
X114740755Y-68030604D01*
X114733065Y-68030488D01*
X113983632Y-68030488D01*
X113982971Y-67821470D01*
X114760185Y-67821470D01*
X114774950Y-67821818D01*
G37*
G36*
X115025430Y-65824525D02*
G01*
X114263429Y-66302099D01*
X115025430Y-66302099D01*
X115025430Y-66511781D01*
X113983632Y-66511781D01*
X113983632Y-66271011D01*
X114750924Y-65803359D01*
X113983632Y-65803359D01*
X113983632Y-65591693D01*
X115025430Y-65591693D01*
X115025430Y-65824525D01*
G37*
G36*
X113297038Y-66708234D02*
G01*
X111656622Y-66708234D01*
X111656622Y-65611537D01*
X112101784Y-65611537D01*
X112101784Y-66130121D01*
X112260534Y-66130121D01*
X112260534Y-65660484D01*
X112679237Y-65660484D01*
X112679237Y-66130121D01*
X112851216Y-66130121D01*
X112851216Y-65598308D01*
X113297038Y-65598308D01*
X113297038Y-66708234D01*
G37*
G36*
X99224625Y-55775376D02*
G01*
X99224625Y-77259542D01*
X77740459Y-77259542D01*
X77740459Y-75777876D01*
X79222126Y-75777876D01*
X84407958Y-75777876D01*
X85148792Y-75777876D01*
X87371292Y-75777876D01*
X87371292Y-75037042D01*
X88112125Y-75037042D01*
X88112125Y-74296208D01*
X86630458Y-74296208D01*
X86630458Y-73555375D01*
X85148792Y-73555375D01*
X85148792Y-74296208D01*
X85889625Y-74296208D01*
X85889625Y-75037042D01*
X85148792Y-75037042D01*
X85148792Y-75777876D01*
X84407958Y-75777876D01*
X84407958Y-70592042D01*
X79222126Y-70592042D01*
X79222126Y-75777876D01*
X77740459Y-75777876D01*
X77740459Y-69851209D01*
X79222126Y-69851209D01*
X79962959Y-69851209D01*
X81444625Y-69851209D01*
X84407958Y-69851209D01*
X84407958Y-69110375D01*
X83667125Y-69110375D01*
X83667125Y-68369542D01*
X84407958Y-68369542D01*
X84407958Y-67628709D01*
X83667125Y-67628709D01*
X83667125Y-68369542D01*
X82926292Y-68369542D01*
X82926292Y-69110375D01*
X81444625Y-69110375D01*
X81444625Y-69851209D01*
X79962959Y-69851209D01*
X79962959Y-69110375D01*
X81444625Y-69110375D01*
X81444625Y-68369542D01*
X82185459Y-68369542D01*
X82185459Y-67628709D01*
X81444625Y-67628709D01*
X81444625Y-68369542D01*
X79962959Y-68369542D01*
X79962959Y-69110375D01*
X79222126Y-69110375D01*
X79222126Y-69851209D01*
X77740459Y-69851209D01*
X77740459Y-68369542D01*
X79222126Y-68369542D01*
X79962959Y-68369542D01*
X79962959Y-67628709D01*
X79222126Y-67628709D01*
X79222126Y-68369542D01*
X77740459Y-68369542D01*
X77740459Y-66887875D01*
X79222126Y-66887875D01*
X79962959Y-66887875D01*
X79962959Y-67628709D01*
X80703792Y-67628709D01*
X80703792Y-66887875D01*
X81444625Y-66887875D01*
X82185459Y-66887875D01*
X84407958Y-66887875D01*
X84407958Y-67628709D01*
X85148792Y-67628709D01*
X85889625Y-67628709D01*
X86630458Y-67628709D01*
X86630458Y-66887875D01*
X87371292Y-66887875D01*
X87371292Y-65406209D01*
X88112125Y-65406209D01*
X88112125Y-63924542D01*
X87371292Y-63924542D01*
X87371292Y-64665375D01*
X86630458Y-64665375D01*
X86630458Y-66887875D01*
X85889625Y-66887875D01*
X85889625Y-67628709D01*
X85148792Y-67628709D01*
X85148792Y-66887875D01*
X85889625Y-66887875D01*
X85889625Y-65406209D01*
X85148792Y-65406209D01*
X85148792Y-66147042D01*
X82926292Y-66147042D01*
X82926292Y-65406209D01*
X82185459Y-65406209D01*
X82185459Y-66887875D01*
X81444625Y-66887875D01*
X81444625Y-65406209D01*
X82185459Y-65406209D01*
X82185459Y-64665375D01*
X82926292Y-64665375D01*
X82926292Y-65406209D01*
X84407958Y-65406209D01*
X84407958Y-64665375D01*
X85148792Y-64665375D01*
X85889625Y-64665375D01*
X86630458Y-64665375D01*
X86630458Y-63924542D01*
X85889625Y-63924542D01*
X85889625Y-64665375D01*
X85148792Y-64665375D01*
X85148792Y-63924542D01*
X84407958Y-63924542D01*
X84407958Y-64665375D01*
X83667125Y-64665375D01*
X83667125Y-63924542D01*
X84407958Y-63924542D01*
X84407958Y-63183709D01*
X83667125Y-63183709D01*
X83667125Y-63924542D01*
X82926292Y-63924542D01*
X82926292Y-63183709D01*
X82185459Y-63183709D01*
X82185459Y-64665375D01*
X81444625Y-64665375D01*
X81444625Y-65406209D01*
X80703792Y-65406209D01*
X80703792Y-64665375D01*
X81444625Y-64665375D01*
X81444625Y-63183709D01*
X80703792Y-63183709D01*
X80703792Y-63924542D01*
X79962959Y-63924542D01*
X79962959Y-64665375D01*
X79222126Y-64665375D01*
X79222126Y-66887875D01*
X77740459Y-66887875D01*
X77740459Y-63924542D01*
X79222126Y-63924542D01*
X79962959Y-63924542D01*
X79962959Y-63183709D01*
X79222126Y-63183709D01*
X79222126Y-63924542D01*
X77740459Y-63924542D01*
X77740459Y-62442875D01*
X79222126Y-62442875D01*
X84407958Y-62442875D01*
X85148792Y-62442875D01*
X85889625Y-62442875D01*
X85889625Y-61702042D01*
X85148792Y-61702042D01*
X85148792Y-62442875D01*
X84407958Y-62442875D01*
X84407958Y-60961209D01*
X85148792Y-60961209D01*
X86630458Y-60961209D01*
X86630458Y-59479542D01*
X87371292Y-59479542D01*
X87371292Y-60961209D01*
X86630458Y-60961209D01*
X86630458Y-63183709D01*
X88112125Y-63183709D01*
X88112125Y-63924542D01*
X89593792Y-63924542D01*
X89593792Y-62442875D01*
X90334625Y-62442875D01*
X90334625Y-61702042D01*
X91075458Y-61702042D01*
X91075458Y-62442875D01*
X90334625Y-62442875D01*
X90334625Y-63183709D01*
X91075458Y-63183709D01*
X91075458Y-66147042D01*
X90334625Y-66147042D01*
X90334625Y-66887875D01*
X91816292Y-66887875D01*
X91816292Y-67628709D01*
X91075458Y-67628709D01*
X91075458Y-68369542D01*
X91816292Y-68369542D01*
X91816292Y-69110375D01*
X91075458Y-69110375D01*
X91075458Y-70592042D01*
X90334625Y-70592042D01*
X90334625Y-69851209D01*
X89593792Y-69851209D01*
X89593792Y-69110375D01*
X90334625Y-69110375D01*
X90334625Y-68369542D01*
X88852958Y-68369542D01*
X88852958Y-67628709D01*
X89593792Y-67628709D01*
X89593792Y-65406209D01*
X90334625Y-65406209D01*
X90334625Y-64665375D01*
X89593792Y-64665375D01*
X89593792Y-65406209D01*
X88112125Y-65406209D01*
X88112125Y-66887875D01*
X87371292Y-66887875D01*
X87371292Y-67628709D01*
X86630458Y-67628709D01*
X86630458Y-68369542D01*
X85148792Y-68369542D01*
X85148792Y-69110375D01*
X85889625Y-69110375D01*
X85889625Y-69851209D01*
X85148792Y-69851209D01*
X85148792Y-70592042D01*
X85889625Y-70592042D01*
X85889625Y-69851209D01*
X87371292Y-69851209D01*
X87371292Y-70592042D01*
X88112125Y-70592042D01*
X88112125Y-71332875D01*
X87371292Y-71332875D01*
X87371292Y-72073709D01*
X86630458Y-72073709D01*
X86630458Y-71332875D01*
X85889625Y-71332875D01*
X85889625Y-72073709D01*
X85148792Y-72073709D01*
X85148792Y-72814542D01*
X88112125Y-72814542D01*
X88112125Y-73555375D01*
X88852958Y-73555375D01*
X88852958Y-72814542D01*
X89593792Y-72814542D01*
X89593792Y-71332875D01*
X91075458Y-71332875D01*
X91075458Y-72814542D01*
X89593792Y-72814542D01*
X89593792Y-73555375D01*
X88852958Y-73555375D01*
X88852958Y-75037042D01*
X88112125Y-75037042D01*
X88112125Y-75777876D01*
X89593792Y-75777876D01*
X89593792Y-74296208D01*
X91075458Y-74296208D01*
X91075458Y-75037042D01*
X90334625Y-75037042D01*
X90334625Y-75777876D01*
X92557125Y-75777876D01*
X93297958Y-75777876D01*
X94038792Y-75777876D01*
X96261291Y-75777876D01*
X97742959Y-75777876D01*
X97742959Y-75037042D01*
X97002125Y-75037042D01*
X97002125Y-74296208D01*
X97742959Y-74296208D01*
X97742959Y-73555375D01*
X97002125Y-73555375D01*
X97002125Y-74296208D01*
X96261291Y-74296208D01*
X96261291Y-75777876D01*
X94038792Y-75777876D01*
X94038792Y-75037042D01*
X93297958Y-75037042D01*
X93297958Y-75777876D01*
X92557125Y-75777876D01*
X92557125Y-75037042D01*
X93297958Y-75037042D01*
X93297958Y-74296208D01*
X91816292Y-74296208D01*
X91816292Y-73555375D01*
X91075458Y-73555375D01*
X91075458Y-72814542D01*
X93297958Y-72814542D01*
X93297958Y-73555375D01*
X94038792Y-73555375D01*
X94038792Y-75037042D01*
X95520458Y-75037042D01*
X95520458Y-74296208D01*
X94779625Y-74296208D01*
X94779625Y-73555375D01*
X96261291Y-73555375D01*
X96261291Y-72814542D01*
X95520458Y-72814542D01*
X95520458Y-71332875D01*
X96261291Y-71332875D01*
X97742959Y-71332875D01*
X97742959Y-69851209D01*
X96261291Y-69851209D01*
X96261291Y-71332875D01*
X95520458Y-71332875D01*
X95520458Y-69110375D01*
X94779625Y-69110375D01*
X94779625Y-68369542D01*
X95520458Y-68369542D01*
X96261291Y-68369542D01*
X96261291Y-69110375D01*
X97002125Y-69110375D01*
X97002125Y-68369542D01*
X97742959Y-68369542D01*
X97742959Y-66147042D01*
X97002125Y-66147042D01*
X97002125Y-65406209D01*
X97742959Y-65406209D01*
X97742959Y-63924542D01*
X97002125Y-63924542D01*
X97002125Y-64665375D01*
X95520458Y-64665375D01*
X95520458Y-65406209D01*
X96261291Y-65406209D01*
X96261291Y-66887875D01*
X97002125Y-66887875D01*
X97002125Y-67628709D01*
X95520458Y-67628709D01*
X95520458Y-68369542D01*
X94779625Y-68369542D01*
X94038792Y-68369542D01*
X94038792Y-69110375D01*
X93297958Y-69110375D01*
X93297958Y-68369542D01*
X94038792Y-68369542D01*
X94038792Y-67628709D01*
X94779625Y-67628709D01*
X95520458Y-67628709D01*
X95520458Y-66147042D01*
X94779625Y-66147042D01*
X94779625Y-67628709D01*
X94038792Y-67628709D01*
X93297958Y-67628709D01*
X93297958Y-68369542D01*
X92557125Y-68369542D01*
X92557125Y-67628709D01*
X93297958Y-67628709D01*
X93297958Y-66147042D01*
X94038792Y-66147042D01*
X94779625Y-66147042D01*
X94779625Y-64665375D01*
X94038792Y-64665375D01*
X94038792Y-66147042D01*
X93297958Y-66147042D01*
X91816292Y-66147042D01*
X91816292Y-64665375D01*
X93297958Y-64665375D01*
X93297958Y-63924542D01*
X94038792Y-63924542D01*
X97002125Y-63924542D01*
X97002125Y-63183709D01*
X96261291Y-63183709D01*
X96261291Y-63924542D01*
X94779625Y-63924542D01*
X94779625Y-63183709D01*
X94038792Y-63183709D01*
X94038792Y-63924542D01*
X93297958Y-63924542D01*
X91816292Y-63924542D01*
X91816292Y-62442875D01*
X92557125Y-62442875D01*
X97742959Y-62442875D01*
X97742959Y-57257043D01*
X92557125Y-57257043D01*
X92557125Y-62442875D01*
X91816292Y-62442875D01*
X91816292Y-60961209D01*
X91075458Y-60961209D01*
X91075458Y-59479542D01*
X89593792Y-59479542D01*
X89593792Y-60220376D01*
X90334625Y-60220376D01*
X90334625Y-61702042D01*
X89593792Y-61702042D01*
X89593792Y-62442875D01*
X88852958Y-62442875D01*
X88852958Y-60220376D01*
X88112125Y-60220376D01*
X88112125Y-58738709D01*
X88852958Y-58738709D01*
X88852958Y-57997876D01*
X89593792Y-57997876D01*
X89593792Y-58738709D01*
X91816292Y-58738709D01*
X91816292Y-57257043D01*
X88852958Y-57257043D01*
X88852958Y-57997876D01*
X88112125Y-57997876D01*
X88112125Y-58738709D01*
X87371292Y-58738709D01*
X87371292Y-57997876D01*
X86630458Y-57997876D01*
X86630458Y-59479542D01*
X85889625Y-59479542D01*
X85889625Y-60220376D01*
X85148792Y-60220376D01*
X85148792Y-60961209D01*
X84407958Y-60961209D01*
X84407958Y-58738709D01*
X85148792Y-58738709D01*
X85889625Y-58738709D01*
X85889625Y-57997876D01*
X86630458Y-57997876D01*
X86630458Y-57257043D01*
X85889625Y-57257043D01*
X85889625Y-57997876D01*
X85148792Y-57997876D01*
X85148792Y-58738709D01*
X84407958Y-58738709D01*
X84407958Y-57257043D01*
X79222126Y-57257043D01*
X79222126Y-62442875D01*
X77740459Y-62442875D01*
X77740459Y-55775376D01*
X99224625Y-55775376D01*
G37*
G36*
X112756394Y-72563579D02*
G01*
X112789174Y-72565902D01*
X112821225Y-72569771D01*
X112852539Y-72575185D01*
X112883110Y-72582142D01*
X112912929Y-72590639D01*
X112941987Y-72600675D01*
X112970279Y-72612248D01*
X112997795Y-72625355D01*
X113024529Y-72639995D01*
X113050472Y-72656166D01*
X113075616Y-72673866D01*
X113099954Y-72693094D01*
X113123479Y-72713846D01*
X113146182Y-72736121D01*
X113168055Y-72759918D01*
X113188844Y-72784917D01*
X113208299Y-72810809D01*
X113226419Y-72837599D01*
X113243203Y-72865296D01*
X113258649Y-72893908D01*
X113272758Y-72923442D01*
X113285527Y-72953907D01*
X113296957Y-72985309D01*
X113307045Y-73017658D01*
X113315791Y-73050959D01*
X113323195Y-73085222D01*
X113329254Y-73120454D01*
X113333969Y-73156662D01*
X113337338Y-73193855D01*
X113339360Y-73232040D01*
X113340034Y-73271224D01*
X113339265Y-73311353D01*
X113336985Y-73351396D01*
X113333232Y-73391392D01*
X113328045Y-73431381D01*
X113321463Y-73471400D01*
X113313524Y-73511490D01*
X113304268Y-73551688D01*
X113293732Y-73592033D01*
X113281795Y-73632249D01*
X113268307Y-73672534D01*
X113253270Y-73712897D01*
X113236681Y-73753346D01*
X113218543Y-73793887D01*
X113198854Y-73834529D01*
X113177616Y-73875280D01*
X113154827Y-73916147D01*
X112698420Y-73727630D01*
X112719127Y-73696290D01*
X112738562Y-73665794D01*
X112756695Y-73636183D01*
X112773496Y-73607494D01*
X112788931Y-73579765D01*
X112802972Y-73553037D01*
X112815586Y-73527348D01*
X112826743Y-73502736D01*
X112831782Y-73490380D01*
X112836482Y-73478117D01*
X112840844Y-73465947D01*
X112844871Y-73453870D01*
X112848565Y-73441886D01*
X112851928Y-73429996D01*
X112854961Y-73418198D01*
X112857666Y-73406493D01*
X112860046Y-73394881D01*
X112862103Y-73383363D01*
X112863837Y-73371937D01*
X112865252Y-73360604D01*
X112866349Y-73349364D01*
X112867131Y-73338218D01*
X112867598Y-73327164D01*
X112867753Y-73316204D01*
X112867675Y-73308622D01*
X112867437Y-73301256D01*
X112867034Y-73294103D01*
X112866462Y-73287161D01*
X112865715Y-73280429D01*
X112864789Y-73273904D01*
X112863678Y-73267584D01*
X112862379Y-73261468D01*
X112860886Y-73255553D01*
X112859195Y-73249838D01*
X112857300Y-73244320D01*
X112855196Y-73238998D01*
X112852880Y-73233870D01*
X112850345Y-73228934D01*
X112847588Y-73224188D01*
X112844602Y-73219630D01*
X112841579Y-73215661D01*
X112838458Y-73211942D01*
X112835237Y-73208472D01*
X112831911Y-73205254D01*
X112828476Y-73202287D01*
X112824929Y-73199573D01*
X112821266Y-73197113D01*
X112817482Y-73194908D01*
X112813575Y-73192959D01*
X112809540Y-73191266D01*
X112805373Y-73189831D01*
X112801070Y-73188655D01*
X112796628Y-73187739D01*
X112792042Y-73187083D01*
X112787309Y-73186689D01*
X112782425Y-73186557D01*
X112774108Y-73187225D01*
X112766025Y-73189230D01*
X112758175Y-73192579D01*
X112750562Y-73197275D01*
X112743184Y-73203324D01*
X112736045Y-73210730D01*
X112729143Y-73219499D01*
X112722481Y-73229635D01*
X112716059Y-73241143D01*
X112709878Y-73254027D01*
X112703940Y-73268294D01*
X112698245Y-73283947D01*
X112692794Y-73300991D01*
X112687588Y-73319432D01*
X112682628Y-73339273D01*
X112677915Y-73360521D01*
X112672603Y-73386793D01*
X112667662Y-73409965D01*
X112663218Y-73429912D01*
X112659394Y-73446511D01*
X112653549Y-73468903D01*
X112647174Y-73490683D01*
X112640266Y-73511840D01*
X112632822Y-73532366D01*
X112624839Y-73552253D01*
X112616315Y-73571491D01*
X112607246Y-73590073D01*
X112597630Y-73607989D01*
X112587464Y-73625231D01*
X112576744Y-73641789D01*
X112565468Y-73657656D01*
X112553633Y-73672822D01*
X112541236Y-73687279D01*
X112528274Y-73701018D01*
X112514745Y-73714030D01*
X112500644Y-73726307D01*
X112486368Y-73738322D01*
X112471575Y-73749562D01*
X112456276Y-73760026D01*
X112440482Y-73769716D01*
X112424204Y-73778630D01*
X112407452Y-73786769D01*
X112390237Y-73794133D01*
X112372569Y-73800721D01*
X112354459Y-73806535D01*
X112335919Y-73811573D01*
X112316957Y-73815837D01*
X112297586Y-73819325D01*
X112277816Y-73822038D01*
X112257657Y-73823976D01*
X112237121Y-73825138D01*
X112216217Y-73825526D01*
X112183483Y-73824775D01*
X112151510Y-73822523D01*
X112120301Y-73818776D01*
X112089858Y-73813537D01*
X112060181Y-73806809D01*
X112031275Y-73798597D01*
X112003139Y-73788905D01*
X111975777Y-73777736D01*
X111949190Y-73765094D01*
X111923379Y-73750983D01*
X111898348Y-73735407D01*
X111874098Y-73718370D01*
X111850631Y-73699876D01*
X111827949Y-73679928D01*
X111806053Y-73658531D01*
X111784946Y-73635688D01*
X111765118Y-73611426D01*
X111746562Y-73586265D01*
X111729280Y-73560205D01*
X111713271Y-73533245D01*
X111698538Y-73505386D01*
X111685080Y-73476628D01*
X111672900Y-73446971D01*
X111661998Y-73416415D01*
X111652374Y-73384959D01*
X111644031Y-73352605D01*
X111636968Y-73319351D01*
X111631188Y-73285198D01*
X111626690Y-73250146D01*
X111623477Y-73214195D01*
X111621548Y-73177344D01*
X111620904Y-73139595D01*
X111620242Y-73140918D01*
X111620774Y-73105541D01*
X111622392Y-73070349D01*
X111625126Y-73035343D01*
X111629007Y-73000524D01*
X111634066Y-72965890D01*
X111640334Y-72931443D01*
X111647843Y-72897181D01*
X111656622Y-72863106D01*
X111666961Y-72828493D01*
X111678192Y-72794066D01*
X111690399Y-72759763D01*
X111703669Y-72725523D01*
X111718085Y-72691282D01*
X111733734Y-72656979D01*
X111750700Y-72622552D01*
X111769070Y-72587939D01*
X112197696Y-72766532D01*
X112182558Y-72788215D01*
X112168374Y-72809641D01*
X112155105Y-72830866D01*
X112142712Y-72851944D01*
X112131156Y-72872928D01*
X112120398Y-72893874D01*
X112110400Y-72914835D01*
X112101123Y-72935866D01*
X112093900Y-72957545D01*
X112087614Y-72978953D01*
X112082275Y-73000129D01*
X112079962Y-73010642D01*
X112077889Y-73021111D01*
X112076056Y-73031541D01*
X112074464Y-73041938D01*
X112073114Y-73052305D01*
X112072008Y-73062648D01*
X112071146Y-73072972D01*
X112070529Y-73083281D01*
X112070158Y-73093581D01*
X112070034Y-73103876D01*
X112070111Y-73111471D01*
X112070344Y-73118872D01*
X112070732Y-73126072D01*
X112071274Y-73133062D01*
X112071972Y-73139836D01*
X112072825Y-73146384D01*
X112073832Y-73152701D01*
X112074995Y-73158777D01*
X112076313Y-73164604D01*
X112077786Y-73170176D01*
X112079414Y-73175485D01*
X112081196Y-73180522D01*
X112083134Y-73185280D01*
X112085227Y-73189752D01*
X112087475Y-73193929D01*
X112089878Y-73197803D01*
X112092530Y-73201678D01*
X112095279Y-73205358D01*
X112098132Y-73208837D01*
X112101092Y-73212107D01*
X112104164Y-73215160D01*
X112107354Y-73217988D01*
X112110665Y-73220583D01*
X112114104Y-73222939D01*
X112117674Y-73225046D01*
X112121381Y-73226897D01*
X112125230Y-73228485D01*
X112129224Y-73229801D01*
X112133370Y-73230839D01*
X112137672Y-73231589D01*
X112142135Y-73232045D01*
X112146763Y-73232199D01*
X112155499Y-73231231D01*
X112164096Y-73228327D01*
X112172552Y-73223492D01*
X112180870Y-73216727D01*
X112189048Y-73208036D01*
X112197086Y-73197422D01*
X112204985Y-73184887D01*
X112212744Y-73170435D01*
X112220364Y-73154069D01*
X112227844Y-73135790D01*
X112235184Y-73115603D01*
X112242386Y-73093510D01*
X112249447Y-73069513D01*
X112256369Y-73043617D01*
X112263152Y-73015824D01*
X112269795Y-72986136D01*
X112272154Y-72976904D01*
X112274280Y-72968091D01*
X112276190Y-72959743D01*
X112277897Y-72951906D01*
X112280771Y-72937954D01*
X112283024Y-72926606D01*
X112288054Y-72905910D01*
X112293718Y-72885744D01*
X112300014Y-72866111D01*
X112306939Y-72847013D01*
X112314493Y-72828455D01*
X112322672Y-72810438D01*
X112331476Y-72792966D01*
X112340901Y-72776041D01*
X112350947Y-72759666D01*
X112361610Y-72743845D01*
X112372890Y-72728580D01*
X112384785Y-72713874D01*
X112397291Y-72699730D01*
X112410409Y-72686151D01*
X112424134Y-72673140D01*
X112438466Y-72660699D01*
X112453179Y-72648699D01*
X112468295Y-72637502D01*
X112483817Y-72627103D01*
X112499744Y-72617498D01*
X112516079Y-72608684D01*
X112532821Y-72600657D01*
X112549972Y-72593412D01*
X112567534Y-72586947D01*
X112585506Y-72581257D01*
X112603889Y-72576338D01*
X112622686Y-72572186D01*
X112641896Y-72568798D01*
X112661521Y-72566170D01*
X112681562Y-72564297D01*
X112702019Y-72563176D01*
X112722894Y-72562804D01*
X112756394Y-72563579D01*
G37*
G36*
X115025430Y-70465317D02*
G01*
X113983632Y-70465317D01*
X113983632Y-70256296D01*
X114838237Y-70256296D01*
X114838237Y-69908369D01*
X115025430Y-69908369D01*
X115025430Y-70465317D01*
G37*
G36*
X113984295Y-64606782D02*
G01*
X115026092Y-64128547D01*
X115026092Y-64358736D01*
X114756877Y-64481765D01*
X114756877Y-64885255D01*
X115025430Y-65010932D01*
X115025430Y-65241121D01*
X114569023Y-65034216D01*
X113983632Y-64768838D01*
X113983965Y-64687479D01*
X114254831Y-64687479D01*
X114569023Y-64806541D01*
X114569023Y-64565771D01*
X114254831Y-64687479D01*
X113983965Y-64687479D01*
X113984295Y-64606782D01*
G37*
D10*
X83630084Y-75000000D02*
X83630084Y-75000000D01*
D11*
G36*
X110321802Y-69533413D02*
G01*
X110284282Y-69606641D01*
X110244561Y-69680211D01*
X110202902Y-69753423D01*
X110159569Y-69825582D01*
X110114825Y-69895988D01*
X110068934Y-69963945D01*
X110022159Y-70028755D01*
X109885705Y-70200971D01*
X109745301Y-70358979D01*
X109600686Y-70503207D01*
X109451600Y-70634082D01*
X109297781Y-70752032D01*
X109138969Y-70857483D01*
X108974904Y-70950864D01*
X108805324Y-71032600D01*
X108629969Y-71103121D01*
X108448580Y-71162852D01*
X108260894Y-71212222D01*
X108066651Y-71251657D01*
X107865590Y-71281585D01*
X107657452Y-71302433D01*
X107441975Y-71314628D01*
X107218899Y-71318598D01*
X105702836Y-71318598D01*
X105702175Y-69897787D01*
X105702541Y-69874012D01*
X105703635Y-69850699D01*
X105705453Y-69827866D01*
X105707992Y-69805532D01*
X105711248Y-69783718D01*
X105715216Y-69762441D01*
X105719893Y-69741722D01*
X105725274Y-69721580D01*
X105731356Y-69702033D01*
X105738134Y-69683102D01*
X105745605Y-69664805D01*
X105753765Y-69647162D01*
X105762609Y-69630191D01*
X105772133Y-69613913D01*
X105782334Y-69598346D01*
X105793208Y-69583510D01*
X105804750Y-69569424D01*
X105816957Y-69556107D01*
X105829824Y-69543579D01*
X105843348Y-69531858D01*
X105857525Y-69520965D01*
X105872350Y-69510917D01*
X105887820Y-69501735D01*
X105903930Y-69493438D01*
X105920677Y-69486045D01*
X105938056Y-69479575D01*
X105956064Y-69474048D01*
X105974697Y-69469482D01*
X105993950Y-69465898D01*
X106013820Y-69463314D01*
X106034303Y-69461749D01*
X106055394Y-69461223D01*
X110356857Y-69461223D01*
X110321802Y-69533413D01*
G37*
G36*
X80703792Y-66147042D02*
G01*
X79962959Y-66147042D01*
X79962959Y-65406209D01*
X80703792Y-65406209D01*
X80703792Y-66147042D01*
G37*
G36*
X113297038Y-76990603D02*
G01*
X111656622Y-76990603D01*
X111656622Y-75892582D01*
X112101784Y-75892582D01*
X112101784Y-76411166D01*
X112260534Y-76411166D01*
X112260534Y-75941531D01*
X112679237Y-75941531D01*
X112679237Y-76411166D01*
X112851216Y-76411166D01*
X112851216Y-75879354D01*
X113297038Y-75879354D01*
X113297038Y-76990603D01*
G37*
D10*
X96965083Y-58034917D02*
X96965083Y-58034917D01*
D11*
G36*
X88112125Y-62442875D02*
G01*
X87371292Y-62442875D01*
X87371292Y-60961209D01*
X88112125Y-60961209D01*
X88112125Y-62442875D01*
G37*
G36*
X94038792Y-69851209D02*
G01*
X94038792Y-72073709D01*
X91816292Y-72073709D01*
X91816292Y-71332875D01*
X92557125Y-71332875D01*
X93297958Y-71332875D01*
X93297958Y-70592042D01*
X92557125Y-70592042D01*
X92557125Y-71332875D01*
X91816292Y-71332875D01*
X91816292Y-69851209D01*
X94038792Y-69851209D01*
G37*
G36*
X111656622Y-68835485D02*
G01*
X113297038Y-68262661D01*
X113297038Y-68895676D01*
X113090002Y-68948594D01*
X113090002Y-69393754D01*
X113297038Y-69443364D01*
X113297038Y-70077041D01*
X112701065Y-69864125D01*
X111656622Y-69490989D01*
X111656622Y-69176795D01*
X112154039Y-69176795D01*
X112154700Y-69176134D01*
X112188373Y-69178428D01*
X112205837Y-69179877D01*
X112223657Y-69181591D01*
X112241788Y-69183614D01*
X112260182Y-69185993D01*
X112278793Y-69188776D01*
X112297575Y-69192008D01*
X112339495Y-69200432D01*
X112389849Y-69211274D01*
X112418188Y-69217815D01*
X112448636Y-69225217D01*
X112481192Y-69233564D01*
X112515857Y-69242941D01*
X112701065Y-69291890D01*
X112701065Y-69047150D01*
X112515857Y-69098744D01*
X112481189Y-69107767D01*
X112448615Y-69115983D01*
X112418118Y-69123394D01*
X112389683Y-69129998D01*
X112363295Y-69135796D01*
X112338937Y-69140788D01*
X112316595Y-69144974D01*
X112296253Y-69148353D01*
X112277716Y-69151995D01*
X112259335Y-69155040D01*
X112241140Y-69157573D01*
X112223161Y-69159680D01*
X112205431Y-69161446D01*
X112187980Y-69162957D01*
X112154039Y-69165551D01*
X112154039Y-69176795D01*
X111656622Y-69176795D01*
X111656622Y-68835485D01*
G37*
D10*
X80000000Y-75000000D02*
X80000000Y-75000000D01*
D11*
G36*
X83630084Y-71369917D02*
G01*
X83630084Y-75000000D01*
X80000000Y-75000000D01*
X80000000Y-74296208D01*
X80703792Y-74296208D01*
X82926292Y-74296208D01*
X82926292Y-72073709D01*
X80703792Y-72073709D01*
X80703792Y-74296208D01*
X80000000Y-74296208D01*
X80000000Y-71369917D01*
X83630084Y-71369917D01*
G37*
D10*
X80000000Y-75000000D02*
X80000000Y-71369917D01*
D11*
G36*
X107441757Y-63898360D02*
G01*
X107657072Y-63910553D01*
X107865099Y-63931395D01*
X108066093Y-63961311D01*
X108260307Y-64000726D01*
X108447998Y-64050066D01*
X108629420Y-64109757D01*
X108804828Y-64180223D01*
X108974476Y-64261890D01*
X109057220Y-64307056D01*
X109138620Y-64355183D01*
X109218708Y-64406322D01*
X109297514Y-64460527D01*
X109375072Y-64517852D01*
X109451414Y-64578349D01*
X109526570Y-64642071D01*
X109600573Y-64709073D01*
X109745247Y-64853125D01*
X109885691Y-65010929D01*
X110022159Y-65182912D01*
X110069098Y-65248403D01*
X110115022Y-65316909D01*
X110159720Y-65387726D01*
X110202985Y-65460146D01*
X110244607Y-65533466D01*
X110284376Y-65606980D01*
X110322083Y-65679981D01*
X110357519Y-65751766D01*
X106056055Y-65751766D01*
X106035022Y-65751240D01*
X106014590Y-65749675D01*
X105994764Y-65747091D01*
X105975548Y-65743507D01*
X105956946Y-65738941D01*
X105938963Y-65733414D01*
X105921603Y-65726944D01*
X105904870Y-65719551D01*
X105888769Y-65711253D01*
X105873305Y-65702072D01*
X105858480Y-65692024D01*
X105844301Y-65681131D01*
X105830770Y-65669410D01*
X105817893Y-65656882D01*
X105805674Y-65643565D01*
X105794118Y-65629479D01*
X105783227Y-65614643D01*
X105773008Y-65599076D01*
X105763465Y-65582798D01*
X105754601Y-65565828D01*
X105746421Y-65548184D01*
X105738929Y-65529888D01*
X105726029Y-65491410D01*
X105715934Y-65450549D01*
X105708681Y-65407458D01*
X105704303Y-65362292D01*
X105702836Y-65315204D01*
X105702836Y-63894390D01*
X107218899Y-63894390D01*
X107441757Y-63898360D01*
G37*
D10*
X96965083Y-58034917D02*
X96965083Y-61665001D01*
X83630084Y-71369917D02*
X83630084Y-75000000D01*
D11*
G36*
X112590337Y-82272029D02*
G01*
X112630692Y-82273061D01*
X112669296Y-82274791D01*
X112706109Y-82277226D01*
X112741092Y-82280374D01*
X112774208Y-82284244D01*
X112805416Y-82288841D01*
X112834679Y-82294176D01*
X112862614Y-82300693D01*
X112876138Y-82304197D01*
X112889363Y-82307870D01*
X112902291Y-82311717D01*
X112914919Y-82315744D01*
X112927246Y-82319955D01*
X112939273Y-82324355D01*
X112950997Y-82328948D01*
X112962417Y-82333741D01*
X112973534Y-82338736D01*
X112984345Y-82343940D01*
X112994850Y-82349357D01*
X113005048Y-82354992D01*
X113014938Y-82360850D01*
X113024518Y-82366936D01*
X113043136Y-82379850D01*
X113061276Y-82393289D01*
X113078928Y-82407251D01*
X113096080Y-82421734D01*
X113112720Y-82436737D01*
X113128838Y-82452257D01*
X113144420Y-82468292D01*
X113159456Y-82484841D01*
X113173934Y-82501902D01*
X113187842Y-82519472D01*
X113201168Y-82537550D01*
X113213902Y-82556134D01*
X113226031Y-82575222D01*
X113237544Y-82594811D01*
X113248429Y-82614901D01*
X113258675Y-82635488D01*
X113268651Y-82657130D01*
X113277990Y-82679143D01*
X113286692Y-82701526D01*
X113294755Y-82724279D01*
X113302179Y-82747399D01*
X113308962Y-82770887D01*
X113315104Y-82794741D01*
X113320604Y-82818960D01*
X113325460Y-82843544D01*
X113329672Y-82868491D01*
X113333238Y-82893800D01*
X113336158Y-82919471D01*
X113338431Y-82945502D01*
X113340056Y-82971893D01*
X113341031Y-82998642D01*
X113341357Y-83025749D01*
X113341031Y-83052644D01*
X113340056Y-83079249D01*
X113338431Y-83105552D01*
X113336158Y-83131541D01*
X113333238Y-83157204D01*
X113329672Y-83182530D01*
X113325460Y-83207507D01*
X113320604Y-83232124D01*
X113315104Y-83256368D01*
X113308962Y-83280229D01*
X113302179Y-83303695D01*
X113294755Y-83326754D01*
X113286692Y-83349394D01*
X113277990Y-83371603D01*
X113268651Y-83393372D01*
X113258675Y-83414686D01*
X113248320Y-83435390D01*
X113237353Y-83455582D01*
X113225781Y-83475259D01*
X113213613Y-83494423D01*
X113200855Y-83513071D01*
X113187516Y-83531202D01*
X113173604Y-83548816D01*
X113159125Y-83565912D01*
X113144088Y-83582488D01*
X113128501Y-83598544D01*
X113112372Y-83614079D01*
X113095707Y-83629092D01*
X113078516Y-83643581D01*
X113060805Y-83657546D01*
X113042583Y-83670986D01*
X113023857Y-83683900D01*
X113014175Y-83689752D01*
X113004227Y-83695404D01*
X112994013Y-83700856D01*
X112983528Y-83706110D01*
X112972773Y-83711166D01*
X112961744Y-83716026D01*
X112950440Y-83720689D01*
X112938859Y-83725158D01*
X112926999Y-83729433D01*
X112914858Y-83733516D01*
X112889725Y-83741105D01*
X112863445Y-83747936D01*
X112836003Y-83754014D01*
X112807114Y-83759026D01*
X112776048Y-83763595D01*
X112742857Y-83767653D01*
X112707597Y-83771130D01*
X112670322Y-83773955D01*
X112631085Y-83776059D01*
X112589941Y-83777373D01*
X112546945Y-83777827D01*
X111656622Y-83777827D01*
X111657284Y-83188467D01*
X112551576Y-83188467D01*
X112570551Y-83188335D01*
X112588782Y-83187936D01*
X112606270Y-83187268D01*
X112623013Y-83186328D01*
X112639012Y-83185112D01*
X112654267Y-83183619D01*
X112668778Y-83181844D01*
X112682544Y-83179786D01*
X112695567Y-83177440D01*
X112707845Y-83174805D01*
X112719379Y-83171878D01*
X112730169Y-83168655D01*
X112740215Y-83165133D01*
X112749517Y-83161310D01*
X112758075Y-83157183D01*
X112765888Y-83152749D01*
X112772770Y-83147616D01*
X112779271Y-83142137D01*
X112785383Y-83136305D01*
X112791096Y-83130114D01*
X112796402Y-83123560D01*
X112801293Y-83116635D01*
X112805759Y-83109334D01*
X112809792Y-83101651D01*
X112813384Y-83093581D01*
X112816525Y-83085117D01*
X112819206Y-83076254D01*
X112821420Y-83066986D01*
X112823156Y-83057308D01*
X112824408Y-83047212D01*
X112825165Y-83036695D01*
X112825419Y-83025749D01*
X112825164Y-83014803D01*
X112824847Y-83009492D01*
X112824404Y-83004287D01*
X112823836Y-82999190D01*
X112823143Y-82994198D01*
X112822327Y-82989312D01*
X112821389Y-82984532D01*
X112820328Y-82979855D01*
X112819145Y-82975283D01*
X112817843Y-82970815D01*
X112816420Y-82966450D01*
X112814878Y-82962188D01*
X112813218Y-82958027D01*
X112811439Y-82953969D01*
X112809544Y-82950012D01*
X112807533Y-82946155D01*
X112805406Y-82942399D01*
X112803164Y-82938743D01*
X112800808Y-82935186D01*
X112798339Y-82931728D01*
X112795757Y-82928368D01*
X112793064Y-82925106D01*
X112790259Y-82921941D01*
X112787343Y-82918873D01*
X112784318Y-82915902D01*
X112781184Y-82913027D01*
X112777941Y-82910247D01*
X112774591Y-82907562D01*
X112771135Y-82904971D01*
X112767572Y-82902475D01*
X112763904Y-82900072D01*
X112756091Y-82895266D01*
X112747538Y-82890770D01*
X112738248Y-82886584D01*
X112728226Y-82882708D01*
X112717476Y-82879143D01*
X112706000Y-82875887D01*
X112693804Y-82872941D01*
X112680891Y-82870306D01*
X112667264Y-82867980D01*
X112652928Y-82865965D01*
X112637887Y-82864260D01*
X112622145Y-82862865D01*
X112605705Y-82861779D01*
X112588571Y-82861004D01*
X112552237Y-82860384D01*
X111657945Y-82860384D01*
X111657945Y-82271686D01*
X112548268Y-82271686D01*
X112590337Y-82272029D01*
G37*
G36*
X113297038Y-60937671D02*
G01*
X111656622Y-60937671D01*
X111656622Y-59840974D01*
X112101784Y-59840974D01*
X112101784Y-60359558D01*
X112260534Y-60359558D01*
X112260534Y-59889921D01*
X112679237Y-59889921D01*
X112679237Y-60359558D01*
X112851216Y-60359558D01*
X112851216Y-59826421D01*
X113297038Y-59826421D01*
X113297038Y-60937671D01*
G37*
G36*
X113983632Y-75930284D02*
G01*
X113983711Y-75919040D01*
X114170164Y-75919040D01*
X114835592Y-75920363D01*
X114835318Y-75891150D01*
X114834517Y-75863023D01*
X114833220Y-75835950D01*
X114831458Y-75809899D01*
X114829262Y-75784841D01*
X114826662Y-75760745D01*
X114823691Y-75737578D01*
X114820379Y-75715311D01*
X114818348Y-75704700D01*
X114815977Y-75693954D01*
X114813267Y-75683079D01*
X114810219Y-75672078D01*
X114806833Y-75660958D01*
X114803112Y-75649722D01*
X114799055Y-75638375D01*
X114794664Y-75626923D01*
X114789939Y-75615371D01*
X114784883Y-75603722D01*
X114779495Y-75591982D01*
X114773776Y-75580156D01*
X114767728Y-75568249D01*
X114761352Y-75556265D01*
X114747617Y-75532087D01*
X114739711Y-75520072D01*
X114730874Y-75508832D01*
X114721107Y-75498368D01*
X114710410Y-75488679D01*
X114698783Y-75479765D01*
X114686225Y-75471626D01*
X114672738Y-75464262D01*
X114658320Y-75457673D01*
X114642972Y-75451859D01*
X114626694Y-75446821D01*
X114609486Y-75442558D01*
X114591348Y-75439070D01*
X114572279Y-75436357D01*
X114552280Y-75434419D01*
X114531351Y-75433256D01*
X114509492Y-75432868D01*
X114496788Y-75433100D01*
X114484225Y-75433788D01*
X114471806Y-75434927D01*
X114459531Y-75436507D01*
X114447405Y-75438521D01*
X114435427Y-75440961D01*
X114423600Y-75443820D01*
X114411927Y-75447090D01*
X114400409Y-75450763D01*
X114389047Y-75454831D01*
X114377845Y-75459287D01*
X114366803Y-75464122D01*
X114355924Y-75469330D01*
X114345210Y-75474902D01*
X114334662Y-75480830D01*
X114324283Y-75487108D01*
X114314322Y-75494116D01*
X114304778Y-75501257D01*
X114295649Y-75508537D01*
X114286932Y-75515964D01*
X114278626Y-75523546D01*
X114270729Y-75531291D01*
X114263239Y-75539207D01*
X114256154Y-75547301D01*
X114249471Y-75555580D01*
X114243191Y-75564054D01*
X114237309Y-75572729D01*
X114231824Y-75581614D01*
X114226735Y-75590715D01*
X114222039Y-75600042D01*
X114217735Y-75609600D01*
X114213820Y-75619400D01*
X114206941Y-75638750D01*
X114200705Y-75657620D01*
X114195136Y-75676024D01*
X114190256Y-75693979D01*
X114186090Y-75711500D01*
X114182660Y-75728603D01*
X114179989Y-75745302D01*
X114178946Y-75753505D01*
X114178102Y-75761613D01*
X114175187Y-75796629D01*
X114172645Y-75834374D01*
X114171629Y-75854347D01*
X114170847Y-75875095D01*
X114170343Y-75896649D01*
X114170164Y-75919040D01*
X113983711Y-75919040D01*
X113983886Y-75894352D01*
X113984666Y-75859497D01*
X113986005Y-75825744D01*
X113987932Y-75793114D01*
X113990480Y-75761631D01*
X113993679Y-75731319D01*
X113997560Y-75702201D01*
X114002154Y-75674300D01*
X114007177Y-75647545D01*
X114013316Y-75620876D01*
X114020571Y-75594316D01*
X114028943Y-75567887D01*
X114038431Y-75541614D01*
X114049035Y-75515518D01*
X114060755Y-75489624D01*
X114073592Y-75463955D01*
X114080825Y-75451514D01*
X114088145Y-75439492D01*
X114095560Y-75427888D01*
X114103078Y-75416703D01*
X114110709Y-75405936D01*
X114118461Y-75395588D01*
X114126342Y-75385658D01*
X114134362Y-75376147D01*
X114142530Y-75367055D01*
X114150854Y-75358381D01*
X114159342Y-75350125D01*
X114168004Y-75342289D01*
X114176848Y-75334871D01*
X114185882Y-75327871D01*
X114195117Y-75321290D01*
X114204560Y-75315128D01*
X114223439Y-75303162D01*
X114241860Y-75292080D01*
X114259801Y-75281897D01*
X114277238Y-75272629D01*
X114294148Y-75264291D01*
X114310507Y-75256898D01*
X114326293Y-75250467D01*
X114333963Y-75247617D01*
X114341482Y-75245013D01*
X114356985Y-75240087D01*
X114372736Y-75235742D01*
X114388735Y-75232002D01*
X114404982Y-75228890D01*
X114421477Y-75226429D01*
X114438220Y-75224642D01*
X114446685Y-75224009D01*
X114455211Y-75223553D01*
X114463800Y-75223278D01*
X114472451Y-75223185D01*
X114484853Y-75222214D01*
X114497255Y-75221366D01*
X114503456Y-75221028D01*
X114509657Y-75220767D01*
X114515859Y-75220599D01*
X114522060Y-75220540D01*
X114533680Y-75220734D01*
X114545473Y-75221317D01*
X114557443Y-75222292D01*
X114569591Y-75223661D01*
X114581923Y-75225425D01*
X114594439Y-75227586D01*
X114607143Y-75230146D01*
X114620038Y-75233107D01*
X114633127Y-75236472D01*
X114646412Y-75240241D01*
X114659897Y-75244418D01*
X114673585Y-75249003D01*
X114687478Y-75254000D01*
X114701579Y-75259408D01*
X114715892Y-75265232D01*
X114730419Y-75271472D01*
X114745061Y-75278039D01*
X114759473Y-75285337D01*
X114773653Y-75293372D01*
X114787604Y-75302147D01*
X114801326Y-75311667D01*
X114814821Y-75321934D01*
X114828089Y-75332953D01*
X114841131Y-75344729D01*
X114853948Y-75357263D01*
X114866541Y-75370562D01*
X114878912Y-75384627D01*
X114891061Y-75399464D01*
X114902988Y-75415077D01*
X114914696Y-75431468D01*
X114926185Y-75448642D01*
X114937456Y-75466603D01*
X114948145Y-75485384D01*
X114958138Y-75505014D01*
X114967435Y-75525489D01*
X114976037Y-75546805D01*
X114983946Y-75568958D01*
X114991162Y-75591944D01*
X114997686Y-75615760D01*
X115003519Y-75640401D01*
X115008662Y-75665864D01*
X115013117Y-75692145D01*
X115016883Y-75719239D01*
X115019963Y-75747144D01*
X115022356Y-75775855D01*
X115024065Y-75805368D01*
X115025089Y-75835679D01*
X115025430Y-75866785D01*
X115025430Y-76130045D01*
X113983632Y-76130045D01*
X113983632Y-75930284D01*
G37*
G36*
X111480013Y-52451162D02*
G01*
X111267023Y-52451162D01*
X111267023Y-51796319D01*
X111480013Y-51796319D01*
X111480013Y-52451162D01*
G37*
G36*
X105293394Y-65680328D02*
G01*
X105294818Y-65713124D01*
X105298043Y-65744554D01*
X105302986Y-65774639D01*
X105309566Y-65803400D01*
X105317698Y-65830860D01*
X105327301Y-65857038D01*
X105338293Y-65881957D01*
X105350589Y-65905637D01*
X105364108Y-65928101D01*
X105378768Y-65949368D01*
X105394485Y-65969462D01*
X105411177Y-65988402D01*
X105428762Y-66006211D01*
X105447156Y-66022909D01*
X105466277Y-66038518D01*
X105486043Y-66053060D01*
X105506371Y-66066555D01*
X105527179Y-66079025D01*
X105569901Y-66100974D01*
X105613550Y-66119079D01*
X105657464Y-66133510D01*
X105700983Y-66144437D01*
X105743446Y-66152031D01*
X105784192Y-66156462D01*
X105822560Y-66157901D01*
X110529498Y-66157901D01*
X110559453Y-66231343D01*
X110587791Y-66305552D01*
X110614489Y-66380508D01*
X110639527Y-66456188D01*
X110662882Y-66532569D01*
X110684534Y-66609630D01*
X110704462Y-66687347D01*
X110722643Y-66765699D01*
X110739057Y-66844663D01*
X110753683Y-66924218D01*
X110766498Y-67004340D01*
X110777482Y-67085007D01*
X110786614Y-67166198D01*
X110793871Y-67247890D01*
X110799234Y-67330060D01*
X110802679Y-67412687D01*
X105267597Y-67412687D01*
X105225443Y-67411339D01*
X105205661Y-67409647D01*
X105186726Y-67407270D01*
X105168625Y-67404202D01*
X105151345Y-67400439D01*
X105134875Y-67395976D01*
X105119203Y-67390807D01*
X105104315Y-67384928D01*
X105090200Y-67378334D01*
X105076844Y-67371020D01*
X105064237Y-67362980D01*
X105052365Y-67354211D01*
X105041216Y-67344706D01*
X105030778Y-67334462D01*
X105021038Y-67323472D01*
X105011984Y-67311733D01*
X105003604Y-67299238D01*
X104995885Y-67285984D01*
X104988815Y-67271965D01*
X104982382Y-67257176D01*
X104976573Y-67241612D01*
X104971376Y-67225269D01*
X104966778Y-67208141D01*
X104959332Y-67171510D01*
X104954135Y-67131682D01*
X104951090Y-67088615D01*
X104950097Y-67042270D01*
X104949435Y-63894390D01*
X105293394Y-63894390D01*
X105293394Y-65680328D01*
G37*
G36*
X112194388Y-61574655D02*
G01*
X113296378Y-61574655D01*
X113296378Y-62163353D01*
X112194388Y-62163353D01*
X112194388Y-62492097D01*
X111656622Y-62492097D01*
X111656622Y-61247232D01*
X112194388Y-61247232D01*
X112194388Y-61574655D01*
G37*
D10*
X93335000Y-58034917D02*
X96965083Y-58034917D01*
X83630084Y-58034917D02*
X83630084Y-58034917D01*
D11*
G36*
X114699130Y-68797312D02*
G01*
X114710183Y-68797894D01*
X114721238Y-68798863D01*
X114732289Y-68800219D01*
X114743328Y-68801963D01*
X114754348Y-68804095D01*
X114765344Y-68806614D01*
X114776307Y-68809521D01*
X114787232Y-68812815D01*
X114798111Y-68816497D01*
X114808937Y-68820567D01*
X114819705Y-68825024D01*
X114830407Y-68829869D01*
X114841036Y-68835101D01*
X114851585Y-68840721D01*
X114862049Y-68846728D01*
X114873056Y-68852851D01*
X114883753Y-68859314D01*
X114894140Y-68866113D01*
X114904217Y-68873248D01*
X114913984Y-68880717D01*
X114923441Y-68888516D01*
X114932587Y-68896645D01*
X114941424Y-68905102D01*
X114949951Y-68913884D01*
X114958167Y-68922990D01*
X114966074Y-68932417D01*
X114973670Y-68942165D01*
X114980956Y-68952230D01*
X114987933Y-68962610D01*
X114994599Y-68973305D01*
X115000955Y-68984312D01*
X115006962Y-68995529D01*
X115012582Y-69006861D01*
X115017815Y-69018312D01*
X115022659Y-69029890D01*
X115027116Y-69041600D01*
X115031186Y-69053447D01*
X115034868Y-69065437D01*
X115038162Y-69077577D01*
X115041069Y-69089872D01*
X115043588Y-69102328D01*
X115045720Y-69114950D01*
X115047464Y-69127745D01*
X115048820Y-69140718D01*
X115049789Y-69153875D01*
X115050370Y-69167222D01*
X115050564Y-69180765D01*
X115050463Y-69190414D01*
X115050160Y-69200013D01*
X115049653Y-69209555D01*
X115048942Y-69219036D01*
X115048025Y-69228452D01*
X115046902Y-69237796D01*
X115045571Y-69247065D01*
X115044033Y-69256254D01*
X115042285Y-69265357D01*
X115040326Y-69274370D01*
X115038157Y-69283288D01*
X115035775Y-69292107D01*
X115033180Y-69300821D01*
X115030371Y-69309425D01*
X115027347Y-69317915D01*
X115024106Y-69326286D01*
X115020548Y-69335014D01*
X115016568Y-69343838D01*
X115012164Y-69352758D01*
X115007333Y-69361777D01*
X115002071Y-69370897D01*
X114996376Y-69380120D01*
X114990245Y-69389447D01*
X114983675Y-69398881D01*
X114976664Y-69408423D01*
X114969207Y-69418076D01*
X114961303Y-69427841D01*
X114952948Y-69437721D01*
X114944140Y-69447716D01*
X114934876Y-69457830D01*
X114925152Y-69468065D01*
X114914966Y-69478421D01*
X114904642Y-69488848D01*
X114893762Y-69498553D01*
X114882330Y-69507543D01*
X114870349Y-69515825D01*
X114857821Y-69523405D01*
X114844750Y-69530290D01*
X114831138Y-69536488D01*
X114816988Y-69542004D01*
X114802303Y-69546846D01*
X114787087Y-69551021D01*
X114771341Y-69554534D01*
X114755069Y-69557394D01*
X114738274Y-69559606D01*
X114720959Y-69561178D01*
X114703126Y-69562116D01*
X114684779Y-69562427D01*
X113983632Y-69562427D01*
X113984292Y-69354067D01*
X114685439Y-69354067D01*
X114695470Y-69353873D01*
X114705225Y-69353290D01*
X114714710Y-69352315D01*
X114723927Y-69350946D01*
X114732881Y-69349182D01*
X114741575Y-69347021D01*
X114750013Y-69344461D01*
X114758199Y-69341500D01*
X114766137Y-69338136D01*
X114773831Y-69334366D01*
X114781285Y-69330190D01*
X114788502Y-69325604D01*
X114795487Y-69320608D01*
X114802243Y-69315199D01*
X114808774Y-69309376D01*
X114815085Y-69303135D01*
X114820852Y-69296857D01*
X114826247Y-69290423D01*
X114831270Y-69283834D01*
X114835921Y-69277090D01*
X114840199Y-69270191D01*
X114844106Y-69263137D01*
X114847641Y-69255928D01*
X114850803Y-69248564D01*
X114853594Y-69241045D01*
X114856012Y-69233371D01*
X114858059Y-69225542D01*
X114859733Y-69217558D01*
X114861035Y-69209419D01*
X114861965Y-69201125D01*
X114862523Y-69192676D01*
X114862709Y-69184072D01*
X114862663Y-69179492D01*
X114862526Y-69174936D01*
X114862300Y-69170410D01*
X114861986Y-69165924D01*
X114861587Y-69161483D01*
X114861105Y-69157097D01*
X114860541Y-69152774D01*
X114859898Y-69148519D01*
X114859178Y-69144343D01*
X114858382Y-69140251D01*
X114857512Y-69136253D01*
X114856570Y-69132355D01*
X114855559Y-69128565D01*
X114854480Y-69124892D01*
X114853335Y-69121343D01*
X114852126Y-69117926D01*
X114850662Y-69114058D01*
X114849003Y-69110140D01*
X114847157Y-69106170D01*
X114845129Y-69102144D01*
X114842927Y-69098061D01*
X114840557Y-69093916D01*
X114835342Y-69085432D01*
X114829537Y-69076669D01*
X114823198Y-69067604D01*
X114816378Y-69058213D01*
X114809132Y-69048473D01*
X114804598Y-69043885D01*
X114799681Y-69039551D01*
X114794387Y-69035477D01*
X114788719Y-69031668D01*
X114782684Y-69028130D01*
X114776285Y-69024870D01*
X114769527Y-69021892D01*
X114762416Y-69019204D01*
X114754956Y-69016809D01*
X114747152Y-69014716D01*
X114739009Y-69012928D01*
X114730532Y-69011452D01*
X114721725Y-69010294D01*
X114712593Y-69009460D01*
X114703142Y-69008955D01*
X114693376Y-69008786D01*
X113983631Y-69008786D01*
X113983631Y-68797119D01*
X114688085Y-68797119D01*
X114699130Y-68797312D01*
G37*
G36*
X115025430Y-74828957D02*
G01*
X113983632Y-74828957D01*
X113983632Y-74619936D01*
X115025430Y-74619936D01*
X115025430Y-74828957D01*
G37*
G36*
X112194388Y-67345880D02*
G01*
X113296378Y-67345880D01*
X113296378Y-67934577D01*
X112194388Y-67934577D01*
X112194388Y-68262661D01*
X111656622Y-68262661D01*
X111656622Y-67017797D01*
X112194388Y-67017797D01*
X112194388Y-67345880D01*
G37*
G36*
X88852958Y-70592042D02*
G01*
X88112125Y-70592042D01*
X88112125Y-69851209D01*
X88852958Y-69851209D01*
X88852958Y-70592042D01*
G37*
D10*
X80000000Y-61665001D02*
X80000000Y-58034917D01*
D11*
G36*
X113261320Y-53203897D02*
G01*
X113270932Y-53228149D01*
X113279924Y-53252309D01*
X113288295Y-53276406D01*
X113296047Y-53300472D01*
X113303178Y-53324537D01*
X113309689Y-53348634D01*
X113315581Y-53372793D01*
X113320852Y-53397045D01*
X113325503Y-53421242D01*
X113329533Y-53445269D01*
X113332944Y-53469203D01*
X113335735Y-53493122D01*
X113337905Y-53517102D01*
X113339455Y-53541222D01*
X113340386Y-53565559D01*
X113340696Y-53590190D01*
X113340235Y-53619808D01*
X113338866Y-53649154D01*
X113336615Y-53678267D01*
X113333502Y-53707186D01*
X113329553Y-53735951D01*
X113324790Y-53764599D01*
X113319236Y-53793169D01*
X113312914Y-53821701D01*
X113305470Y-53848676D01*
X113297515Y-53875031D01*
X113289032Y-53900767D01*
X113280007Y-53925882D01*
X113270423Y-53950376D01*
X113260267Y-53974251D01*
X113249521Y-53997505D01*
X113238170Y-54020139D01*
X113222250Y-54046671D01*
X113205753Y-54072435D01*
X113188690Y-54097421D01*
X113171073Y-54121622D01*
X113152913Y-54145028D01*
X113134222Y-54167631D01*
X113115012Y-54189422D01*
X113095295Y-54210392D01*
X113075081Y-54230532D01*
X113054382Y-54249835D01*
X113033211Y-54268291D01*
X113011579Y-54285891D01*
X112989497Y-54302627D01*
X112966977Y-54318490D01*
X112944030Y-54333471D01*
X112920669Y-54347562D01*
X112896275Y-54361252D01*
X112871464Y-54374044D01*
X112846236Y-54385941D01*
X112820592Y-54396945D01*
X112794534Y-54407057D01*
X112768062Y-54416279D01*
X112741177Y-54424614D01*
X112713881Y-54432064D01*
X112686173Y-54438630D01*
X112658056Y-54444314D01*
X112629530Y-54449118D01*
X112600596Y-54453044D01*
X112571255Y-54456095D01*
X112541508Y-54458271D01*
X112511356Y-54459576D01*
X112480800Y-54460010D01*
X112457956Y-54459769D01*
X112435313Y-54459045D01*
X112412869Y-54457834D01*
X112390624Y-54456135D01*
X112368577Y-54453942D01*
X112346726Y-54451255D01*
X112325071Y-54448070D01*
X112303611Y-54444384D01*
X112282345Y-54440194D01*
X112261272Y-54435497D01*
X112240390Y-54430290D01*
X112219699Y-54424571D01*
X112199198Y-54418337D01*
X112178887Y-54411583D01*
X112158763Y-54404309D01*
X112138826Y-54396511D01*
X112119603Y-54388574D01*
X112100632Y-54380142D01*
X112081916Y-54371219D01*
X112063461Y-54361805D01*
X112045268Y-54351903D01*
X112027344Y-54341514D01*
X112009690Y-54330641D01*
X111992312Y-54319286D01*
X111975213Y-54307449D01*
X111958397Y-54295135D01*
X111941868Y-54282343D01*
X111925629Y-54269077D01*
X111909685Y-54255338D01*
X111894039Y-54241128D01*
X111878696Y-54226449D01*
X111863659Y-54211303D01*
X111848862Y-54196105D01*
X111834489Y-54180531D01*
X111820544Y-54164595D01*
X111807032Y-54148310D01*
X111793958Y-54131687D01*
X111781327Y-54114739D01*
X111769143Y-54097479D01*
X111757412Y-54079921D01*
X111746139Y-54062075D01*
X111735327Y-54043955D01*
X111724983Y-54025573D01*
X111715110Y-54006943D01*
X111705714Y-53988076D01*
X111696800Y-53968985D01*
X111688372Y-53949683D01*
X111680435Y-53930183D01*
X111672862Y-53909969D01*
X111665771Y-53889514D01*
X111659162Y-53868827D01*
X111653036Y-53847914D01*
X111647395Y-53826785D01*
X111642240Y-53805447D01*
X111637571Y-53783906D01*
X111633389Y-53762172D01*
X111629695Y-53740252D01*
X111626491Y-53718154D01*
X111623778Y-53695885D01*
X111621555Y-53673454D01*
X111619825Y-53650867D01*
X111618587Y-53628134D01*
X111617844Y-53605261D01*
X111617597Y-53582256D01*
X111618918Y-53583574D01*
X111619228Y-53558769D01*
X111620159Y-53533965D01*
X111621709Y-53509160D01*
X111623879Y-53484355D01*
X111626670Y-53459551D01*
X111630081Y-53434746D01*
X111634112Y-53409942D01*
X111638762Y-53385137D01*
X111644309Y-53360947D01*
X111650514Y-53336975D01*
X111657354Y-53313188D01*
X111664807Y-53289557D01*
X111672849Y-53266049D01*
X111681457Y-53242635D01*
X111690608Y-53219282D01*
X111700278Y-53195961D01*
X112308820Y-53195961D01*
X112289599Y-53216658D01*
X112271633Y-53237147D01*
X112263126Y-53247344D01*
X112254939Y-53257527D01*
X112247074Y-53267708D01*
X112239532Y-53277899D01*
X112232315Y-53288114D01*
X112225427Y-53298365D01*
X112218867Y-53308663D01*
X112212639Y-53319023D01*
X112206745Y-53329457D01*
X112201185Y-53339977D01*
X112195963Y-53350596D01*
X112191080Y-53361326D01*
X112186740Y-53371790D01*
X112182651Y-53382344D01*
X112178819Y-53392985D01*
X112175246Y-53403711D01*
X112171937Y-53414518D01*
X112168895Y-53425404D01*
X112166125Y-53436365D01*
X112163629Y-53447399D01*
X112161413Y-53458502D01*
X112159480Y-53469672D01*
X112157833Y-53480907D01*
X112156477Y-53492202D01*
X112155416Y-53503555D01*
X112154653Y-53514964D01*
X112154193Y-53526425D01*
X112154038Y-53537935D01*
X112154395Y-53555832D01*
X112155462Y-53573303D01*
X112157239Y-53590343D01*
X112159723Y-53606944D01*
X112162912Y-53623098D01*
X112166805Y-53638801D01*
X112171399Y-53654044D01*
X112176693Y-53668821D01*
X112182685Y-53683125D01*
X112189372Y-53696950D01*
X112196753Y-53710288D01*
X112204826Y-53723133D01*
X112213589Y-53735478D01*
X112223039Y-53747316D01*
X112233176Y-53758641D01*
X112243997Y-53769445D01*
X112255159Y-53780484D01*
X112266815Y-53790782D01*
X112278963Y-53800344D01*
X112291601Y-53809174D01*
X112304728Y-53817275D01*
X112318341Y-53824651D01*
X112332439Y-53831306D01*
X112347019Y-53837244D01*
X112362080Y-53842469D01*
X112377619Y-53846985D01*
X112393635Y-53850796D01*
X112410126Y-53853905D01*
X112427090Y-53856316D01*
X112444525Y-53858034D01*
X112462428Y-53859061D01*
X112480799Y-53859403D01*
X112498746Y-53859077D01*
X112516137Y-53858098D01*
X112532986Y-53856464D01*
X112549312Y-53854173D01*
X112565129Y-53851223D01*
X112580456Y-53847613D01*
X112595307Y-53843339D01*
X112609701Y-53838401D01*
X112623652Y-53832797D01*
X112637178Y-53826523D01*
X112650296Y-53819580D01*
X112663021Y-53811963D01*
X112675369Y-53803673D01*
X112687359Y-53794706D01*
X112699005Y-53785061D01*
X112710325Y-53774736D01*
X112720883Y-53764202D01*
X112730732Y-53753190D01*
X112739876Y-53741701D01*
X112748318Y-53729737D01*
X112756062Y-53717300D01*
X112763113Y-53704392D01*
X112769474Y-53691016D01*
X112775148Y-53677172D01*
X112780141Y-53662863D01*
X112784455Y-53648091D01*
X112788095Y-53632858D01*
X112791065Y-53617165D01*
X112793368Y-53601015D01*
X112795008Y-53584410D01*
X112795989Y-53567351D01*
X112796315Y-53549840D01*
X112796183Y-53539159D01*
X112795784Y-53528451D01*
X112795116Y-53517720D01*
X112794176Y-53506969D01*
X112792960Y-53496203D01*
X112791467Y-53485425D01*
X112789692Y-53474639D01*
X112787633Y-53463850D01*
X112785288Y-53453060D01*
X112782653Y-53442275D01*
X112779725Y-53431497D01*
X112776502Y-53420731D01*
X112772981Y-53409980D01*
X112769158Y-53399249D01*
X112765031Y-53388541D01*
X112760596Y-53377861D01*
X112756062Y-53366645D01*
X112751146Y-53355321D01*
X112745851Y-53343891D01*
X112740184Y-53332355D01*
X112734148Y-53320714D01*
X112727749Y-53308970D01*
X112713881Y-53285175D01*
X112698617Y-53260976D01*
X112681996Y-53236382D01*
X112664058Y-53211400D01*
X112644841Y-53186038D01*
X113261320Y-53203897D01*
G37*
G36*
X113983631Y-63477008D02*
G01*
X113983826Y-63457304D01*
X113984413Y-63438121D01*
X113985397Y-63419456D01*
X113986784Y-63401303D01*
X113988577Y-63383658D01*
X113990782Y-63366516D01*
X113993404Y-63349872D01*
X113996447Y-63333721D01*
X113999917Y-63318059D01*
X114003818Y-63302880D01*
X114008155Y-63288179D01*
X114012932Y-63273953D01*
X114018156Y-63260195D01*
X114023830Y-63246901D01*
X114029959Y-63234067D01*
X114036549Y-63221687D01*
X114042788Y-63209812D01*
X114049100Y-63198496D01*
X114055479Y-63187743D01*
X114061922Y-63177554D01*
X114068423Y-63167931D01*
X114074977Y-63158875D01*
X114081579Y-63150390D01*
X114088225Y-63142476D01*
X114094910Y-63135136D01*
X114101629Y-63128371D01*
X114108377Y-63122184D01*
X114115149Y-63116576D01*
X114121940Y-63111550D01*
X114128746Y-63107107D01*
X114135562Y-63103249D01*
X114142382Y-63099979D01*
X114156402Y-63093810D01*
X114169709Y-63088207D01*
X114182333Y-63083177D01*
X114194307Y-63078729D01*
X114205660Y-63074870D01*
X114216424Y-63071608D01*
X114221595Y-63070204D01*
X114226630Y-63068951D01*
X114231534Y-63067851D01*
X114236309Y-63066905D01*
X114255967Y-63064476D01*
X114265726Y-63063358D01*
X114275501Y-63062357D01*
X114285337Y-63061511D01*
X114295282Y-63060859D01*
X114305382Y-63060439D01*
X114315684Y-63060291D01*
X114333333Y-63062345D01*
X114350559Y-63065033D01*
X114367357Y-63068356D01*
X114383721Y-63072311D01*
X114399648Y-63076898D01*
X114415132Y-63082115D01*
X114430168Y-63087963D01*
X114444751Y-63094439D01*
X114458878Y-63101543D01*
X114472542Y-63109274D01*
X114485739Y-63117631D01*
X114498464Y-63126613D01*
X114510712Y-63136219D01*
X114522479Y-63146448D01*
X114533760Y-63157299D01*
X114544549Y-63168771D01*
X114554780Y-63180885D01*
X114564387Y-63193656D01*
X114573363Y-63207077D01*
X114581705Y-63221139D01*
X114589407Y-63235832D01*
X114596465Y-63251148D01*
X114602874Y-63267079D01*
X114608628Y-63283615D01*
X114613724Y-63300748D01*
X114618156Y-63318469D01*
X114621920Y-63336770D01*
X114625010Y-63355642D01*
X114627422Y-63375075D01*
X114629150Y-63395062D01*
X114630191Y-63415593D01*
X114630539Y-63436660D01*
X114630539Y-63575567D01*
X115025430Y-63575567D01*
X115025430Y-63784587D01*
X113983632Y-63784587D01*
X113983631Y-63576229D01*
X114170164Y-63576229D01*
X114442685Y-63574907D01*
X114442685Y-63467088D01*
X114442538Y-63455687D01*
X114442098Y-63444553D01*
X114441364Y-63433693D01*
X114440339Y-63423112D01*
X114439024Y-63412813D01*
X114437418Y-63402802D01*
X114435524Y-63393083D01*
X114433342Y-63383662D01*
X114430873Y-63374543D01*
X114428119Y-63365732D01*
X114425079Y-63357232D01*
X114421756Y-63349049D01*
X114418150Y-63341188D01*
X114414262Y-63333654D01*
X114410093Y-63326450D01*
X114405644Y-63319583D01*
X114401055Y-63313576D01*
X114396222Y-63307956D01*
X114391146Y-63302724D01*
X114385831Y-63297879D01*
X114380279Y-63293422D01*
X114374494Y-63289352D01*
X114368479Y-63285670D01*
X114362235Y-63282376D01*
X114355767Y-63279469D01*
X114349077Y-63276950D01*
X114342168Y-63274818D01*
X114335043Y-63273074D01*
X114327705Y-63271717D01*
X114320157Y-63270748D01*
X114312401Y-63270167D01*
X114304441Y-63269973D01*
X114288217Y-63270711D01*
X114280495Y-63271636D01*
X114273033Y-63272932D01*
X114265831Y-63274601D01*
X114258890Y-63276644D01*
X114252209Y-63279063D01*
X114245788Y-63281859D01*
X114239628Y-63285033D01*
X114233729Y-63288585D01*
X114228090Y-63292518D01*
X114222713Y-63296832D01*
X114217597Y-63301530D01*
X114212742Y-63306611D01*
X114208148Y-63312077D01*
X114203816Y-63317930D01*
X114199746Y-63324170D01*
X114195937Y-63330799D01*
X114192390Y-63337818D01*
X114189105Y-63345228D01*
X114183322Y-63361227D01*
X114178588Y-63378805D01*
X114174904Y-63397972D01*
X114172272Y-63418738D01*
X114170691Y-63441112D01*
X114170164Y-63465105D01*
X114170164Y-63576229D01*
X113983631Y-63576229D01*
X113983631Y-63477008D01*
G37*
G36*
X88112125Y-69110375D02*
G01*
X87371292Y-69110375D01*
X87371292Y-68369542D01*
X88112125Y-68369542D01*
X88112125Y-69110375D01*
G37*
D12*
X103404761Y-75119047D02*
X102452380Y-75785714D01*
X103404761Y-76261904D02*
X101404761Y-76261904D01*
X101404761Y-75500000D01*
X101500000Y-75309523D01*
X101595238Y-75214285D01*
X101785714Y-75119047D01*
X102071428Y-75119047D01*
X102261904Y-75214285D01*
X102357142Y-75309523D01*
X102452380Y-75500000D01*
X102452380Y-76261904D01*
X103404761Y-73404761D02*
X102357142Y-73404761D01*
X102166666Y-73500000D01*
X102071428Y-73690476D01*
X102071428Y-74071428D01*
X102166666Y-74261904D01*
X103309523Y-73404761D02*
X103404761Y-73595238D01*
X103404761Y-74071428D01*
X103309523Y-74261904D01*
X103119047Y-74357142D01*
X102928571Y-74357142D01*
X102738095Y-74261904D01*
X102642857Y-74071428D01*
X102642857Y-73595238D01*
X102547619Y-73404761D01*
X103404761Y-71595238D02*
X101404761Y-71595238D01*
X103309523Y-71595238D02*
X103404761Y-71785714D01*
X103404761Y-72166666D01*
X103309523Y-72357142D01*
X103214285Y-72452380D01*
X103023809Y-72547619D01*
X102452380Y-72547619D01*
X102261904Y-72452380D01*
X102166666Y-72357142D01*
X102071428Y-72166666D01*
X102071428Y-71785714D01*
X102166666Y-71595238D01*
X102071428Y-69785714D02*
X103404761Y-69785714D01*
X102071428Y-70642857D02*
X103119047Y-70642857D01*
X103309523Y-70547619D01*
X103404761Y-70357142D01*
X103404761Y-70071428D01*
X103309523Y-69880952D01*
X103214285Y-69785714D01*
X103404761Y-67309523D02*
X101404761Y-67309523D01*
X102357142Y-67309523D02*
X102357142Y-66166666D01*
X103404761Y-66166666D02*
X101404761Y-66166666D01*
X103309523Y-64452380D02*
X103404761Y-64642857D01*
X103404761Y-65023809D01*
X103309523Y-65214285D01*
X103119047Y-65309523D01*
X102357142Y-65309523D01*
X102166666Y-65214285D01*
X102071428Y-65023809D01*
X102071428Y-64642857D01*
X102166666Y-64452380D01*
X102357142Y-64357142D01*
X102547619Y-64357142D01*
X102738095Y-65309523D01*
X103404761Y-63500000D02*
X102071428Y-63500000D01*
X102452380Y-63500000D02*
X102261904Y-63404761D01*
X102166666Y-63309523D01*
X102071428Y-63119047D01*
X102071428Y-62928571D01*
X102071428Y-62452380D02*
X102071428Y-61404761D01*
X103404761Y-62452380D01*
X103404761Y-61404761D01*
X103404761Y-59785714D02*
X102357142Y-59785714D01*
X102166666Y-59880952D01*
X102071428Y-60071428D01*
X102071428Y-60452380D01*
X102166666Y-60642857D01*
X103309523Y-59785714D02*
X103404761Y-59976190D01*
X103404761Y-60452380D01*
X103309523Y-60642857D01*
X103119047Y-60738095D01*
X102928571Y-60738095D01*
X102738095Y-60642857D01*
X102642857Y-60452380D01*
X102642857Y-59976190D01*
X102547619Y-59785714D01*
X103404761Y-58547619D02*
X103309523Y-58738095D01*
X103119047Y-58833333D01*
X101404761Y-58833333D01*
D13*
X30971071Y-79642857D02*
X29471071Y-79642857D01*
X30542500Y-79142857D01*
X29471071Y-78642857D01*
X30971071Y-78642857D01*
X30971071Y-77285714D02*
X30185357Y-77285714D01*
X30042500Y-77357142D01*
X29971071Y-77500000D01*
X29971071Y-77785714D01*
X30042500Y-77928571D01*
X30899642Y-77285714D02*
X30971071Y-77428571D01*
X30971071Y-77785714D01*
X30899642Y-77928571D01*
X30756785Y-78000000D01*
X30613928Y-78000000D01*
X30471071Y-77928571D01*
X30399642Y-77785714D01*
X30399642Y-77428571D01*
X30328214Y-77285714D01*
X30971071Y-75928571D02*
X29471071Y-75928571D01*
X30899642Y-75928571D02*
X30971071Y-76071428D01*
X30971071Y-76357142D01*
X30899642Y-76500000D01*
X30828214Y-76571428D01*
X30685357Y-76642857D01*
X30256785Y-76642857D01*
X30113928Y-76571428D01*
X30042500Y-76500000D01*
X29971071Y-76357142D01*
X29971071Y-76071428D01*
X30042500Y-75928571D01*
X30899642Y-74642857D02*
X30971071Y-74785714D01*
X30971071Y-75071428D01*
X30899642Y-75214285D01*
X30756785Y-75285714D01*
X30185357Y-75285714D01*
X30042500Y-75214285D01*
X29971071Y-75071428D01*
X29971071Y-74785714D01*
X30042500Y-74642857D01*
X30185357Y-74571428D01*
X30328214Y-74571428D01*
X30471071Y-75285714D01*
X29971071Y-72928571D02*
X30971071Y-72642857D01*
X30256785Y-72357142D01*
X30971071Y-72071428D01*
X29971071Y-71785714D01*
X30971071Y-71214285D02*
X29971071Y-71214285D01*
X29471071Y-71214285D02*
X29542500Y-71285714D01*
X29613928Y-71214285D01*
X29542500Y-71142857D01*
X29471071Y-71214285D01*
X29613928Y-71214285D01*
X29971071Y-70714285D02*
X29971071Y-70142857D01*
X29471071Y-70500000D02*
X30756785Y-70500000D01*
X30899642Y-70428571D01*
X30971071Y-70285714D01*
X30971071Y-70142857D01*
X30971071Y-69642857D02*
X29471071Y-69642857D01*
X30971071Y-69000000D02*
X30185357Y-69000000D01*
X30042500Y-69071428D01*
X29971071Y-69214285D01*
X29971071Y-69428571D01*
X30042500Y-69571428D01*
X30113928Y-69642857D01*
X29971071Y-67357142D02*
X29971071Y-66785714D01*
X29471071Y-67142857D02*
X30756785Y-67142857D01*
X30899642Y-67071428D01*
X30971071Y-66928571D01*
X30971071Y-66785714D01*
X30971071Y-66285714D02*
X29471071Y-66285714D01*
X30971071Y-65642857D02*
X30185357Y-65642857D01*
X30042500Y-65714285D01*
X29971071Y-65857142D01*
X29971071Y-66071428D01*
X30042500Y-66214285D01*
X30113928Y-66285714D01*
X30899642Y-64357142D02*
X30971071Y-64500000D01*
X30971071Y-64785714D01*
X30899642Y-64928571D01*
X30756785Y-65000000D01*
X30185357Y-65000000D01*
X30042500Y-64928571D01*
X29971071Y-64785714D01*
X29971071Y-64500000D01*
X30042500Y-64357142D01*
X30185357Y-64285714D01*
X30328214Y-64285714D01*
X30471071Y-65000000D01*
X30971071Y-62500000D02*
X29471071Y-62500000D01*
X30971071Y-61857142D02*
X30185357Y-61857142D01*
X30042500Y-61928571D01*
X29971071Y-62071428D01*
X29971071Y-62285714D01*
X30042500Y-62428571D01*
X30113928Y-62500000D01*
X30899642Y-60571428D02*
X30971071Y-60714285D01*
X30971071Y-61000000D01*
X30899642Y-61142857D01*
X30756785Y-61214285D01*
X30185357Y-61214285D01*
X30042500Y-61142857D01*
X29971071Y-61000000D01*
X29971071Y-60714285D01*
X30042500Y-60571428D01*
X30185357Y-60500000D01*
X30328214Y-60500000D01*
X30471071Y-61214285D01*
X30971071Y-59642857D02*
X30899642Y-59785714D01*
X30756785Y-59857142D01*
X29471071Y-59857142D01*
X29971071Y-59071428D02*
X31471071Y-59071428D01*
X30042500Y-59071428D02*
X29971071Y-58928571D01*
X29971071Y-58642857D01*
X30042500Y-58500000D01*
X30113928Y-58428571D01*
X30256785Y-58357142D01*
X30685357Y-58357142D01*
X30828214Y-58428571D01*
X30899642Y-58500000D01*
X30971071Y-58642857D01*
X30971071Y-58928571D01*
X30899642Y-59071428D01*
X30971071Y-56357142D02*
X30899642Y-56500000D01*
X30828214Y-56571428D01*
X30685357Y-56642857D01*
X30256785Y-56642857D01*
X30113928Y-56571428D01*
X30042500Y-56500000D01*
X29971071Y-56357142D01*
X29971071Y-56142857D01*
X30042500Y-56000000D01*
X30113928Y-55928571D01*
X30256785Y-55857142D01*
X30685357Y-55857142D01*
X30828214Y-55928571D01*
X30899642Y-56000000D01*
X30971071Y-56142857D01*
X30971071Y-56357142D01*
X29971071Y-55428571D02*
X29971071Y-54857142D01*
X30971071Y-55214285D02*
X29685357Y-55214285D01*
X29542500Y-55142857D01*
X29471071Y-55000000D01*
X29471071Y-54857142D01*
X30828214Y-54357142D02*
X30899642Y-54285714D01*
X30971071Y-54357142D01*
X30899642Y-54428571D01*
X30828214Y-54357142D01*
X30971071Y-54357142D01*
X30042500Y-54357142D02*
X30113928Y-54285714D01*
X30185357Y-54357142D01*
X30113928Y-54428571D01*
X30042500Y-54357142D01*
X30185357Y-54357142D01*
X33314642Y-77321428D02*
X33386071Y-77464285D01*
X33386071Y-77750000D01*
X33314642Y-77892857D01*
X33243214Y-77964285D01*
X33100357Y-78035714D01*
X32671785Y-78035714D01*
X32528928Y-77964285D01*
X32457500Y-77892857D01*
X32386071Y-77750000D01*
X32386071Y-77464285D01*
X32457500Y-77321428D01*
X33386071Y-76678571D02*
X32386071Y-76678571D01*
X31886071Y-76678571D02*
X31957500Y-76750000D01*
X32028928Y-76678571D01*
X31957500Y-76607142D01*
X31886071Y-76678571D01*
X32028928Y-76678571D01*
X33386071Y-75964285D02*
X32386071Y-75964285D01*
X32671785Y-75964285D02*
X32528928Y-75892857D01*
X32457500Y-75821428D01*
X32386071Y-75678571D01*
X32386071Y-75535714D01*
X33314642Y-74392857D02*
X33386071Y-74535714D01*
X33386071Y-74821428D01*
X33314642Y-74964285D01*
X33243214Y-75035714D01*
X33100357Y-75107142D01*
X32671785Y-75107142D01*
X32528928Y-75035714D01*
X32457500Y-74964285D01*
X32386071Y-74821428D01*
X32386071Y-74535714D01*
X32457500Y-74392857D01*
X32386071Y-73107142D02*
X33386071Y-73107142D01*
X32386071Y-73750000D02*
X33171785Y-73750000D01*
X33314642Y-73678571D01*
X33386071Y-73535714D01*
X33386071Y-73321428D01*
X33314642Y-73178571D01*
X33243214Y-73107142D01*
X33386071Y-72392857D02*
X32386071Y-72392857D01*
X31886071Y-72392857D02*
X31957500Y-72464285D01*
X32028928Y-72392857D01*
X31957500Y-72321428D01*
X31886071Y-72392857D01*
X32028928Y-72392857D01*
X32386071Y-71892857D02*
X32386071Y-71321428D01*
X31886071Y-71678571D02*
X33171785Y-71678571D01*
X33314642Y-71607142D01*
X33386071Y-71464285D01*
X33386071Y-71321428D01*
X33314642Y-70250000D02*
X33386071Y-70392857D01*
X33386071Y-70678571D01*
X33314642Y-70821428D01*
X33171785Y-70892857D01*
X32600357Y-70892857D01*
X32457500Y-70821428D01*
X32386071Y-70678571D01*
X32386071Y-70392857D01*
X32457500Y-70250000D01*
X32600357Y-70178571D01*
X32743214Y-70178571D01*
X32886071Y-70892857D01*
X33386071Y-69535714D02*
X32386071Y-69535714D01*
X31886071Y-69535714D02*
X31957500Y-69607142D01*
X32028928Y-69535714D01*
X31957500Y-69464285D01*
X31886071Y-69535714D01*
X32028928Y-69535714D01*
X33386071Y-68821428D02*
X32386071Y-68821428D01*
X32528928Y-68821428D02*
X32457500Y-68750000D01*
X32386071Y-68607142D01*
X32386071Y-68392857D01*
X32457500Y-68250000D01*
X32600357Y-68178571D01*
X33386071Y-68178571D01*
X32600357Y-68178571D02*
X32457500Y-68107142D01*
X32386071Y-67964285D01*
X32386071Y-67750000D01*
X32457500Y-67607142D01*
X32600357Y-67535714D01*
X33386071Y-67535714D01*
X32386071Y-66821428D02*
X33886071Y-66821428D01*
X32457500Y-66821428D02*
X32386071Y-66678571D01*
X32386071Y-66392857D01*
X32457500Y-66250000D01*
X32528928Y-66178571D01*
X32671785Y-66107142D01*
X33100357Y-66107142D01*
X33243214Y-66178571D01*
X33314642Y-66250000D01*
X33386071Y-66392857D01*
X33386071Y-66678571D01*
X33314642Y-66821428D01*
X33386071Y-65464285D02*
X32386071Y-65464285D01*
X32671785Y-65464285D02*
X32528928Y-65392857D01*
X32457500Y-65321428D01*
X32386071Y-65178571D01*
X32386071Y-65035714D01*
X33386071Y-64535714D02*
X32386071Y-64535714D01*
X31886071Y-64535714D02*
X31957500Y-64607142D01*
X32028928Y-64535714D01*
X31957500Y-64464285D01*
X31886071Y-64535714D01*
X32028928Y-64535714D01*
X33386071Y-63821428D02*
X32386071Y-63821428D01*
X32528928Y-63821428D02*
X32457500Y-63750000D01*
X32386071Y-63607142D01*
X32386071Y-63392857D01*
X32457500Y-63250000D01*
X32600357Y-63178571D01*
X33386071Y-63178571D01*
X32600357Y-63178571D02*
X32457500Y-63107142D01*
X32386071Y-62964285D01*
X32386071Y-62750000D01*
X32457500Y-62607142D01*
X32600357Y-62535714D01*
X33386071Y-62535714D01*
X33386071Y-61178571D02*
X32600357Y-61178571D01*
X32457500Y-61250000D01*
X32386071Y-61392857D01*
X32386071Y-61678571D01*
X32457500Y-61821428D01*
X33314642Y-61178571D02*
X33386071Y-61321428D01*
X33386071Y-61678571D01*
X33314642Y-61821428D01*
X33171785Y-61892857D01*
X33028928Y-61892857D01*
X32886071Y-61821428D01*
X32814642Y-61678571D01*
X32814642Y-61321428D01*
X32743214Y-61178571D01*
X32386071Y-60678571D02*
X32386071Y-60107142D01*
X31886071Y-60464285D02*
X33171785Y-60464285D01*
X33314642Y-60392857D01*
X33386071Y-60250000D01*
X33386071Y-60107142D01*
X33314642Y-59035714D02*
X33386071Y-59178571D01*
X33386071Y-59464285D01*
X33314642Y-59607142D01*
X33171785Y-59678571D01*
X32600357Y-59678571D01*
X32457500Y-59607142D01*
X32386071Y-59464285D01*
X32386071Y-59178571D01*
X32457500Y-59035714D01*
X32600357Y-58964285D01*
X32743214Y-58964285D01*
X32886071Y-59678571D01*
X33243214Y-58321428D02*
X33314642Y-58250000D01*
X33386071Y-58321428D01*
X33314642Y-58392857D01*
X33243214Y-58321428D01*
X33386071Y-58321428D01*
X33386071Y-57607142D02*
X32386071Y-57607142D01*
X32671785Y-57607142D02*
X32528928Y-57535714D01*
X32457500Y-57464285D01*
X32386071Y-57321428D01*
X32386071Y-57178571D01*
X33386071Y-56464285D02*
X33314642Y-56607142D01*
X33243214Y-56678571D01*
X33100357Y-56750000D01*
X32671785Y-56750000D01*
X32528928Y-56678571D01*
X32457500Y-56607142D01*
X32386071Y-56464285D01*
X32386071Y-56250000D01*
X32457500Y-56107142D01*
X32528928Y-56035714D01*
X32671785Y-55964285D01*
X33100357Y-55964285D01*
X33243214Y-56035714D01*
X33314642Y-56107142D01*
X33386071Y-56250000D01*
X33386071Y-56464285D01*
G04 #@! TO.C,R5*
X47833333Y-53452380D02*
X47500000Y-52976190D01*
X47261904Y-53452380D02*
X47261904Y-52452380D01*
X47642857Y-52452380D01*
X47738095Y-52500000D01*
X47785714Y-52547619D01*
X47833333Y-52642857D01*
X47833333Y-52785714D01*
X47785714Y-52880952D01*
X47738095Y-52928571D01*
X47642857Y-52976190D01*
X47261904Y-52976190D01*
X48738095Y-52452380D02*
X48261904Y-52452380D01*
X48214285Y-52928571D01*
X48261904Y-52880952D01*
X48357142Y-52833333D01*
X48595238Y-52833333D01*
X48690476Y-52880952D01*
X48738095Y-52928571D01*
X48785714Y-53023809D01*
X48785714Y-53261904D01*
X48738095Y-53357142D01*
X48690476Y-53404761D01*
X48595238Y-53452380D01*
X48357142Y-53452380D01*
X48261904Y-53404761D01*
X48214285Y-53357142D01*
G04 #@! TO.C,J2*
X105952380Y-109333333D02*
X106666666Y-109333333D01*
X106809523Y-109380952D01*
X106904761Y-109476190D01*
X106952380Y-109619047D01*
X106952380Y-109714285D01*
X106047619Y-108904761D02*
X106000000Y-108857142D01*
X105952380Y-108761904D01*
X105952380Y-108523809D01*
X106000000Y-108428571D01*
X106047619Y-108380952D01*
X106142857Y-108333333D01*
X106238095Y-108333333D01*
X106380952Y-108380952D01*
X106952380Y-108952380D01*
X106952380Y-108333333D01*
G04 #@! TO.C,RV4*
X22404761Y-56702380D02*
X22071428Y-56226190D01*
X21833333Y-56702380D02*
X21833333Y-55702380D01*
X22214285Y-55702380D01*
X22309523Y-55750000D01*
X22357142Y-55797619D01*
X22404761Y-55892857D01*
X22404761Y-56035714D01*
X22357142Y-56130952D01*
X22309523Y-56178571D01*
X22214285Y-56226190D01*
X21833333Y-56226190D01*
X22690476Y-55702380D02*
X23023809Y-56702380D01*
X23357142Y-55702380D01*
X24119047Y-56035714D02*
X24119047Y-56702380D01*
X23880952Y-55654761D02*
X23642857Y-56369047D01*
X24261904Y-56369047D01*
G04 #@! TO.C,R1*
X47833333Y-103082380D02*
X47500000Y-102606190D01*
X47261904Y-103082380D02*
X47261904Y-102082380D01*
X47642857Y-102082380D01*
X47738095Y-102130000D01*
X47785714Y-102177619D01*
X47833333Y-102272857D01*
X47833333Y-102415714D01*
X47785714Y-102510952D01*
X47738095Y-102558571D01*
X47642857Y-102606190D01*
X47261904Y-102606190D01*
X48785714Y-103082380D02*
X48214285Y-103082380D01*
X48500000Y-103082380D02*
X48500000Y-102082380D01*
X48404761Y-102225238D01*
X48309523Y-102320476D01*
X48214285Y-102368095D01*
G04 #@! TO.C,J1*
X105952380Y-96333333D02*
X106666666Y-96333333D01*
X106809523Y-96380952D01*
X106904761Y-96476190D01*
X106952380Y-96619047D01*
X106952380Y-96714285D01*
X106952380Y-95333333D02*
X106952380Y-95904761D01*
X106952380Y-95619047D02*
X105952380Y-95619047D01*
X106095238Y-95714285D01*
X106190476Y-95809523D01*
X106238095Y-95904761D01*
G04 #@! TO.C,RV3*
X22404761Y-76702380D02*
X22071428Y-76226190D01*
X21833333Y-76702380D02*
X21833333Y-75702380D01*
X22214285Y-75702380D01*
X22309523Y-75750000D01*
X22357142Y-75797619D01*
X22404761Y-75892857D01*
X22404761Y-76035714D01*
X22357142Y-76130952D01*
X22309523Y-76178571D01*
X22214285Y-76226190D01*
X21833333Y-76226190D01*
X22690476Y-75702380D02*
X23023809Y-76702380D01*
X23357142Y-75702380D01*
X23595238Y-75702380D02*
X24214285Y-75702380D01*
X23880952Y-76083333D01*
X24023809Y-76083333D01*
X24119047Y-76130952D01*
X24166666Y-76178571D01*
X24214285Y-76273809D01*
X24214285Y-76511904D01*
X24166666Y-76607142D01*
X24119047Y-76654761D01*
X24023809Y-76702380D01*
X23738095Y-76702380D01*
X23642857Y-76654761D01*
X23595238Y-76607142D01*
G04 #@! TO.C,R3*
X47833333Y-96452380D02*
X47500000Y-95976190D01*
X47261904Y-96452380D02*
X47261904Y-95452380D01*
X47642857Y-95452380D01*
X47738095Y-95500000D01*
X47785714Y-95547619D01*
X47833333Y-95642857D01*
X47833333Y-95785714D01*
X47785714Y-95880952D01*
X47738095Y-95928571D01*
X47642857Y-95976190D01*
X47261904Y-95976190D01*
X48166666Y-95452380D02*
X48785714Y-95452380D01*
X48452380Y-95833333D01*
X48595238Y-95833333D01*
X48690476Y-95880952D01*
X48738095Y-95928571D01*
X48785714Y-96023809D01*
X48785714Y-96261904D01*
X48738095Y-96357142D01*
X48690476Y-96404761D01*
X48595238Y-96452380D01*
X48309523Y-96452380D01*
X48214285Y-96404761D01*
X48166666Y-96357142D01*
G04 #@! TO.C,J4*
X104952380Y-26333333D02*
X105666666Y-26333333D01*
X105809523Y-26380952D01*
X105904761Y-26476190D01*
X105952380Y-26619047D01*
X105952380Y-26714285D01*
X105285714Y-25428571D02*
X105952380Y-25428571D01*
X104904761Y-25666666D02*
X105619047Y-25904761D01*
X105619047Y-25285714D01*
G04 #@! TO.C,J5*
X104952380Y-39333333D02*
X105666666Y-39333333D01*
X105809523Y-39380952D01*
X105904761Y-39476190D01*
X105952380Y-39619047D01*
X105952380Y-39714285D01*
X104952380Y-38380952D02*
X104952380Y-38857142D01*
X105428571Y-38904761D01*
X105380952Y-38857142D01*
X105333333Y-38761904D01*
X105333333Y-38523809D01*
X105380952Y-38428571D01*
X105428571Y-38380952D01*
X105523809Y-38333333D01*
X105761904Y-38333333D01*
X105857142Y-38380952D01*
X105904761Y-38428571D01*
X105952380Y-38523809D01*
X105952380Y-38761904D01*
X105904761Y-38857142D01*
X105857142Y-38904761D01*
G04 #@! TO.C,R6*
X47833333Y-78452380D02*
X47500000Y-77976190D01*
X47261904Y-78452380D02*
X47261904Y-77452380D01*
X47642857Y-77452380D01*
X47738095Y-77500000D01*
X47785714Y-77547619D01*
X47833333Y-77642857D01*
X47833333Y-77785714D01*
X47785714Y-77880952D01*
X47738095Y-77928571D01*
X47642857Y-77976190D01*
X47261904Y-77976190D01*
X48690476Y-77452380D02*
X48500000Y-77452380D01*
X48404761Y-77500000D01*
X48357142Y-77547619D01*
X48261904Y-77690476D01*
X48214285Y-77880952D01*
X48214285Y-78261904D01*
X48261904Y-78357142D01*
X48309523Y-78404761D01*
X48404761Y-78452380D01*
X48595238Y-78452380D01*
X48690476Y-78404761D01*
X48738095Y-78357142D01*
X48785714Y-78261904D01*
X48785714Y-78023809D01*
X48738095Y-77928571D01*
X48690476Y-77880952D01*
X48595238Y-77833333D01*
X48404761Y-77833333D01*
X48309523Y-77880952D01*
X48261904Y-77928571D01*
X48214285Y-78023809D01*
G04 #@! TO.C,M1*
X41190476Y-29012380D02*
X41190476Y-28012380D01*
X41523809Y-28726666D01*
X41857142Y-28012380D01*
X41857142Y-29012380D01*
X42857142Y-29012380D02*
X42285714Y-29012380D01*
X42571428Y-29012380D02*
X42571428Y-28012380D01*
X42476190Y-28155238D01*
X42380952Y-28250476D01*
X42285714Y-28298095D01*
G04 #@! TO.C,RV5*
X22404761Y-96702380D02*
X22071428Y-96226190D01*
X21833333Y-96702380D02*
X21833333Y-95702380D01*
X22214285Y-95702380D01*
X22309523Y-95750000D01*
X22357142Y-95797619D01*
X22404761Y-95892857D01*
X22404761Y-96035714D01*
X22357142Y-96130952D01*
X22309523Y-96178571D01*
X22214285Y-96226190D01*
X21833333Y-96226190D01*
X22690476Y-95702380D02*
X23023809Y-96702380D01*
X23357142Y-95702380D01*
X24166666Y-95702380D02*
X23690476Y-95702380D01*
X23642857Y-96178571D01*
X23690476Y-96130952D01*
X23785714Y-96083333D01*
X24023809Y-96083333D01*
X24119047Y-96130952D01*
X24166666Y-96178571D01*
X24214285Y-96273809D01*
X24214285Y-96511904D01*
X24166666Y-96607142D01*
X24119047Y-96654761D01*
X24023809Y-96702380D01*
X23785714Y-96702380D01*
X23690476Y-96654761D01*
X23642857Y-96607142D01*
G04 #@! TO.C,R10*
X47357142Y-60452380D02*
X47023809Y-59976190D01*
X46785714Y-60452380D02*
X46785714Y-59452380D01*
X47166666Y-59452380D01*
X47261904Y-59500000D01*
X47309523Y-59547619D01*
X47357142Y-59642857D01*
X47357142Y-59785714D01*
X47309523Y-59880952D01*
X47261904Y-59928571D01*
X47166666Y-59976190D01*
X46785714Y-59976190D01*
X48309523Y-60452380D02*
X47738095Y-60452380D01*
X48023809Y-60452380D02*
X48023809Y-59452380D01*
X47928571Y-59595238D01*
X47833333Y-59690476D01*
X47738095Y-59738095D01*
X48928571Y-59452380D02*
X49023809Y-59452380D01*
X49119047Y-59500000D01*
X49166666Y-59547619D01*
X49214285Y-59642857D01*
X49261904Y-59833333D01*
X49261904Y-60071428D01*
X49214285Y-60261904D01*
X49166666Y-60357142D01*
X49119047Y-60404761D01*
X49023809Y-60452380D01*
X48928571Y-60452380D01*
X48833333Y-60404761D01*
X48785714Y-60357142D01*
X48738095Y-60261904D01*
X48690476Y-60071428D01*
X48690476Y-59833333D01*
X48738095Y-59642857D01*
X48785714Y-59547619D01*
X48833333Y-59500000D01*
X48928571Y-59452380D01*
G04 #@! TO.C,C2*
X85507142Y-103916666D02*
X85554761Y-103964285D01*
X85602380Y-104107142D01*
X85602380Y-104202380D01*
X85554761Y-104345238D01*
X85459523Y-104440476D01*
X85364285Y-104488095D01*
X85173809Y-104535714D01*
X85030952Y-104535714D01*
X84840476Y-104488095D01*
X84745238Y-104440476D01*
X84650000Y-104345238D01*
X84602380Y-104202380D01*
X84602380Y-104107142D01*
X84650000Y-103964285D01*
X84697619Y-103916666D01*
X84697619Y-103535714D02*
X84650000Y-103488095D01*
X84602380Y-103392857D01*
X84602380Y-103154761D01*
X84650000Y-103059523D01*
X84697619Y-103011904D01*
X84792857Y-102964285D01*
X84888095Y-102964285D01*
X85030952Y-103011904D01*
X85602380Y-103583333D01*
X85602380Y-102964285D01*
G04 #@! TO.C,RV1*
X76702380Y-113595238D02*
X76226190Y-113928571D01*
X76702380Y-114166666D02*
X75702380Y-114166666D01*
X75702380Y-113785714D01*
X75750000Y-113690476D01*
X75797619Y-113642857D01*
X75892857Y-113595238D01*
X76035714Y-113595238D01*
X76130952Y-113642857D01*
X76178571Y-113690476D01*
X76226190Y-113785714D01*
X76226190Y-114166666D01*
X75702380Y-113309523D02*
X76702380Y-112976190D01*
X75702380Y-112642857D01*
X76702380Y-111785714D02*
X76702380Y-112357142D01*
X76702380Y-112071428D02*
X75702380Y-112071428D01*
X75845238Y-112166666D01*
X75940476Y-112261904D01*
X75988095Y-112357142D01*
G04 #@! TO.C,U2*
X66248095Y-42122380D02*
X66248095Y-42931904D01*
X66295714Y-43027142D01*
X66343333Y-43074761D01*
X66438571Y-43122380D01*
X66629047Y-43122380D01*
X66724285Y-43074761D01*
X66771904Y-43027142D01*
X66819523Y-42931904D01*
X66819523Y-42122380D01*
X67248095Y-42217619D02*
X67295714Y-42170000D01*
X67390952Y-42122380D01*
X67629047Y-42122380D01*
X67724285Y-42170000D01*
X67771904Y-42217619D01*
X67819523Y-42312857D01*
X67819523Y-42408095D01*
X67771904Y-42550952D01*
X67200476Y-43122380D01*
X67819523Y-43122380D01*
G04 #@! TO.C,R9*
X47833333Y-66452380D02*
X47500000Y-65976190D01*
X47261904Y-66452380D02*
X47261904Y-65452380D01*
X47642857Y-65452380D01*
X47738095Y-65500000D01*
X47785714Y-65547619D01*
X47833333Y-65642857D01*
X47833333Y-65785714D01*
X47785714Y-65880952D01*
X47738095Y-65928571D01*
X47642857Y-65976190D01*
X47261904Y-65976190D01*
X48309523Y-66452380D02*
X48500000Y-66452380D01*
X48595238Y-66404761D01*
X48642857Y-66357142D01*
X48738095Y-66214285D01*
X48785714Y-66023809D01*
X48785714Y-65642857D01*
X48738095Y-65547619D01*
X48690476Y-65500000D01*
X48595238Y-65452380D01*
X48404761Y-65452380D01*
X48309523Y-65500000D01*
X48261904Y-65547619D01*
X48214285Y-65642857D01*
X48214285Y-65880952D01*
X48261904Y-65976190D01*
X48309523Y-66023809D01*
X48404761Y-66071428D01*
X48595238Y-66071428D01*
X48690476Y-66023809D01*
X48738095Y-65976190D01*
X48785714Y-65880952D01*
G04 #@! TO.C,R7*
X47833333Y-85082380D02*
X47500000Y-84606190D01*
X47261904Y-85082380D02*
X47261904Y-84082380D01*
X47642857Y-84082380D01*
X47738095Y-84130000D01*
X47785714Y-84177619D01*
X47833333Y-84272857D01*
X47833333Y-84415714D01*
X47785714Y-84510952D01*
X47738095Y-84558571D01*
X47642857Y-84606190D01*
X47261904Y-84606190D01*
X48166666Y-84082380D02*
X48833333Y-84082380D01*
X48404761Y-85082380D01*
G04 #@! TO.C,Q2*
X72904761Y-28802619D02*
X72809523Y-28755000D01*
X72714285Y-28659761D01*
X72571428Y-28516904D01*
X72476190Y-28469285D01*
X72380952Y-28469285D01*
X72428571Y-28707380D02*
X72333333Y-28659761D01*
X72238095Y-28564523D01*
X72190476Y-28374047D01*
X72190476Y-28040714D01*
X72238095Y-27850238D01*
X72333333Y-27755000D01*
X72428571Y-27707380D01*
X72619047Y-27707380D01*
X72714285Y-27755000D01*
X72809523Y-27850238D01*
X72857142Y-28040714D01*
X72857142Y-28374047D01*
X72809523Y-28564523D01*
X72714285Y-28659761D01*
X72619047Y-28707380D01*
X72428571Y-28707380D01*
X73238095Y-27802619D02*
X73285714Y-27755000D01*
X73380952Y-27707380D01*
X73619047Y-27707380D01*
X73714285Y-27755000D01*
X73761904Y-27802619D01*
X73809523Y-27897857D01*
X73809523Y-27993095D01*
X73761904Y-28135952D01*
X73190476Y-28707380D01*
X73809523Y-28707380D01*
G04 #@! TO.C,R8*
X47833333Y-91082380D02*
X47500000Y-90606190D01*
X47261904Y-91082380D02*
X47261904Y-90082380D01*
X47642857Y-90082380D01*
X47738095Y-90130000D01*
X47785714Y-90177619D01*
X47833333Y-90272857D01*
X47833333Y-90415714D01*
X47785714Y-90510952D01*
X47738095Y-90558571D01*
X47642857Y-90606190D01*
X47261904Y-90606190D01*
X48404761Y-90510952D02*
X48309523Y-90463333D01*
X48261904Y-90415714D01*
X48214285Y-90320476D01*
X48214285Y-90272857D01*
X48261904Y-90177619D01*
X48309523Y-90130000D01*
X48404761Y-90082380D01*
X48595238Y-90082380D01*
X48690476Y-90130000D01*
X48738095Y-90177619D01*
X48785714Y-90272857D01*
X48785714Y-90320476D01*
X48738095Y-90415714D01*
X48690476Y-90463333D01*
X48595238Y-90510952D01*
X48404761Y-90510952D01*
X48309523Y-90558571D01*
X48261904Y-90606190D01*
X48214285Y-90701428D01*
X48214285Y-90891904D01*
X48261904Y-90987142D01*
X48309523Y-91034761D01*
X48404761Y-91082380D01*
X48595238Y-91082380D01*
X48690476Y-91034761D01*
X48738095Y-90987142D01*
X48785714Y-90891904D01*
X48785714Y-90701428D01*
X48738095Y-90606190D01*
X48690476Y-90558571D01*
X48595238Y-90510952D01*
G04 #@! TO.C,R4*
X47833333Y-47952380D02*
X47500000Y-47476190D01*
X47261904Y-47952380D02*
X47261904Y-46952380D01*
X47642857Y-46952380D01*
X47738095Y-47000000D01*
X47785714Y-47047619D01*
X47833333Y-47142857D01*
X47833333Y-47285714D01*
X47785714Y-47380952D01*
X47738095Y-47428571D01*
X47642857Y-47476190D01*
X47261904Y-47476190D01*
X48690476Y-47285714D02*
X48690476Y-47952380D01*
X48452380Y-46904761D02*
X48214285Y-47619047D01*
X48833333Y-47619047D01*
G04 #@! TO.C,R2*
X47833333Y-72452380D02*
X47500000Y-71976190D01*
X47261904Y-72452380D02*
X47261904Y-71452380D01*
X47642857Y-71452380D01*
X47738095Y-71500000D01*
X47785714Y-71547619D01*
X47833333Y-71642857D01*
X47833333Y-71785714D01*
X47785714Y-71880952D01*
X47738095Y-71928571D01*
X47642857Y-71976190D01*
X47261904Y-71976190D01*
X48214285Y-71547619D02*
X48261904Y-71500000D01*
X48357142Y-71452380D01*
X48595238Y-71452380D01*
X48690476Y-71500000D01*
X48738095Y-71547619D01*
X48785714Y-71642857D01*
X48785714Y-71738095D01*
X48738095Y-71880952D01*
X48166666Y-72452380D01*
X48785714Y-72452380D01*
G04 #@! TO.C,Q1*
X60904761Y-28802619D02*
X60809523Y-28755000D01*
X60714285Y-28659761D01*
X60571428Y-28516904D01*
X60476190Y-28469285D01*
X60380952Y-28469285D01*
X60428571Y-28707380D02*
X60333333Y-28659761D01*
X60238095Y-28564523D01*
X60190476Y-28374047D01*
X60190476Y-28040714D01*
X60238095Y-27850238D01*
X60333333Y-27755000D01*
X60428571Y-27707380D01*
X60619047Y-27707380D01*
X60714285Y-27755000D01*
X60809523Y-27850238D01*
X60857142Y-28040714D01*
X60857142Y-28374047D01*
X60809523Y-28564523D01*
X60714285Y-28659761D01*
X60619047Y-28707380D01*
X60428571Y-28707380D01*
X61809523Y-28707380D02*
X61238095Y-28707380D01*
X61523809Y-28707380D02*
X61523809Y-27707380D01*
X61428571Y-27850238D01*
X61333333Y-27945476D01*
X61238095Y-27993095D01*
G04 #@! TO.C,RV2*
X58202380Y-21595238D02*
X57726190Y-21928571D01*
X58202380Y-22166666D02*
X57202380Y-22166666D01*
X57202380Y-21785714D01*
X57250000Y-21690476D01*
X57297619Y-21642857D01*
X57392857Y-21595238D01*
X57535714Y-21595238D01*
X57630952Y-21642857D01*
X57678571Y-21690476D01*
X57726190Y-21785714D01*
X57726190Y-22166666D01*
X57202380Y-21309523D02*
X58202380Y-20976190D01*
X57202380Y-20642857D01*
X57297619Y-20357142D02*
X57250000Y-20309523D01*
X57202380Y-20214285D01*
X57202380Y-19976190D01*
X57250000Y-19880952D01*
X57297619Y-19833333D01*
X57392857Y-19785714D01*
X57488095Y-19785714D01*
X57630952Y-19833333D01*
X58202380Y-20404761D01*
X58202380Y-19785714D01*
G04 #@! TO.C,U1*
X66248095Y-83497380D02*
X66248095Y-84306904D01*
X66295714Y-84402142D01*
X66343333Y-84449761D01*
X66438571Y-84497380D01*
X66629047Y-84497380D01*
X66724285Y-84449761D01*
X66771904Y-84402142D01*
X66819523Y-84306904D01*
X66819523Y-83497380D01*
X67819523Y-84497380D02*
X67248095Y-84497380D01*
X67533809Y-84497380D02*
X67533809Y-83497380D01*
X67438571Y-83640238D01*
X67343333Y-83735476D01*
X67248095Y-83783095D01*
G04 #@! TO.C,C1*
X66083333Y-77207142D02*
X66035714Y-77254761D01*
X65892857Y-77302380D01*
X65797619Y-77302380D01*
X65654761Y-77254761D01*
X65559523Y-77159523D01*
X65511904Y-77064285D01*
X65464285Y-76873809D01*
X65464285Y-76730952D01*
X65511904Y-76540476D01*
X65559523Y-76445238D01*
X65654761Y-76350000D01*
X65797619Y-76302380D01*
X65892857Y-76302380D01*
X66035714Y-76350000D01*
X66083333Y-76397619D01*
X67035714Y-77302380D02*
X66464285Y-77302380D01*
X66750000Y-77302380D02*
X66750000Y-76302380D01*
X66654761Y-76445238D01*
X66559523Y-76540476D01*
X66464285Y-76588095D01*
D14*
G04 #@! TO.C,R5*
X51270000Y-57370000D02*
X51270000Y-54630000D01*
X51270000Y-54630000D02*
X44730000Y-54630000D01*
X54580000Y-56000000D02*
X51270000Y-56000000D01*
X41420000Y-56000000D02*
X44730000Y-56000000D01*
X44730000Y-57370000D02*
X51270000Y-57370000D01*
X44730000Y-54630000D02*
X44730000Y-57370000D01*
G04 #@! TO.C,J2*
X108300000Y-106400000D02*
X108300000Y-104400000D01*
X108000000Y-113900000D02*
X109300000Y-113900000D01*
X122800000Y-104400000D02*
X122800000Y-113600000D01*
X108300000Y-113600000D02*
X108300000Y-111600000D01*
X114200000Y-104400000D02*
X122800000Y-104400000D01*
X108300000Y-104400000D02*
X109600000Y-104400000D01*
X122800000Y-113600000D02*
X108300000Y-113600000D01*
X108000000Y-112200000D02*
X108000000Y-113900000D01*
G04 #@! TO.C,RV4*
X16380000Y-52120000D02*
X16380000Y-41880000D01*
X16380000Y-41880000D02*
X7380000Y-41880000D01*
X24620000Y-55120000D02*
X16380000Y-55120000D01*
X24620000Y-38880000D02*
X16380000Y-38880000D01*
X16380000Y-52120000D02*
X7380000Y-52120000D01*
X7380000Y-43879000D02*
X-8620000Y-43879000D01*
X7380000Y-50120000D02*
X7380000Y-43879000D01*
X7380000Y-50120000D02*
X-8620000Y-50120000D01*
X24620000Y-55120000D02*
X24620000Y-38880000D01*
X-8620000Y-50120000D02*
X-8620000Y-43879000D01*
X16380000Y-55120000D02*
X16380000Y-38880000D01*
X7380000Y-52120000D02*
X7380000Y-41880000D01*
G04 #@! TO.C,R1*
X41420000Y-105000000D02*
X44730000Y-105000000D01*
X51270000Y-106370000D02*
X51270000Y-103630000D01*
X44730000Y-106370000D02*
X51270000Y-106370000D01*
X54580000Y-105000000D02*
X51270000Y-105000000D01*
X51270000Y-103630000D02*
X44730000Y-103630000D01*
X44730000Y-103630000D02*
X44730000Y-106370000D01*
G04 #@! TO.C,J1*
X108300000Y-100600000D02*
X108300000Y-98600000D01*
X122800000Y-100600000D02*
X108300000Y-100600000D01*
X108300000Y-93400000D02*
X108300000Y-91400000D01*
X108000000Y-99200000D02*
X108000000Y-100900000D01*
X108300000Y-91400000D02*
X109600000Y-91400000D01*
X108000000Y-100900000D02*
X109300000Y-100900000D01*
X114200000Y-91400000D02*
X122800000Y-91400000D01*
X122800000Y-91400000D02*
X122800000Y-100600000D01*
G04 #@! TO.C,RV3*
X16380000Y-75120000D02*
X16380000Y-58880000D01*
X7380000Y-70120000D02*
X-8620000Y-70120000D01*
X7380000Y-70120000D02*
X7380000Y-63879000D01*
X16380000Y-61880000D02*
X7380000Y-61880000D01*
X-8620000Y-70120000D02*
X-8620000Y-63879000D01*
X7380000Y-63879000D02*
X-8620000Y-63879000D01*
X24620000Y-75120000D02*
X16380000Y-75120000D01*
X16380000Y-72120000D02*
X7380000Y-72120000D01*
X16380000Y-72120000D02*
X16380000Y-61880000D01*
X24620000Y-75120000D02*
X24620000Y-58880000D01*
X7380000Y-72120000D02*
X7380000Y-61880000D01*
X24620000Y-58880000D02*
X16380000Y-58880000D01*
G04 #@! TO.C,R3*
X51270000Y-97630000D02*
X44730000Y-97630000D01*
X44730000Y-97630000D02*
X44730000Y-100370000D01*
X54580000Y-99000000D02*
X51270000Y-99000000D01*
X41420000Y-99000000D02*
X44730000Y-99000000D01*
X51270000Y-100370000D02*
X51270000Y-97630000D01*
X44730000Y-100370000D02*
X51270000Y-100370000D01*
G04 #@! TO.C,J4*
X107000000Y-30900000D02*
X108300000Y-30900000D01*
X107300000Y-23400000D02*
X107300000Y-21400000D01*
X121800000Y-21400000D02*
X121800000Y-30600000D01*
X107300000Y-30600000D02*
X107300000Y-28600000D01*
X113200000Y-21400000D02*
X121800000Y-21400000D01*
X107000000Y-29200000D02*
X107000000Y-30900000D01*
X107300000Y-21400000D02*
X108600000Y-21400000D01*
X121800000Y-30600000D02*
X107300000Y-30600000D01*
G04 #@! TO.C,J5*
X107000000Y-43900000D02*
X108300000Y-43900000D01*
X121800000Y-43600000D02*
X107300000Y-43600000D01*
X107000000Y-42200000D02*
X107000000Y-43900000D01*
X107300000Y-43600000D02*
X107300000Y-41600000D01*
X121800000Y-34400000D02*
X121800000Y-43600000D01*
X107300000Y-36400000D02*
X107300000Y-34400000D01*
X113200000Y-34400000D02*
X121800000Y-34400000D01*
X107300000Y-34400000D02*
X108600000Y-34400000D01*
G04 #@! TO.C,R6*
X54580000Y-81000000D02*
X51270000Y-81000000D01*
X41420000Y-81000000D02*
X44730000Y-81000000D01*
X44730000Y-82370000D02*
X51270000Y-82370000D01*
X51270000Y-79630000D02*
X44730000Y-79630000D01*
X51270000Y-82370000D02*
X51270000Y-79630000D01*
X44730000Y-79630000D02*
X44730000Y-82370000D01*
G04 #@! TO.C,M1*
X38430000Y-23775000D02*
X38489000Y-23716000D01*
X47300000Y-18200000D02*
X45800000Y-18200000D01*
X40680000Y-21524000D02*
X40774000Y-21431000D01*
X47060000Y-27560000D02*
X36940000Y-27560000D01*
X40510000Y-21284000D02*
X40569000Y-21226000D01*
X38225000Y-23569000D02*
X38319000Y-23476000D01*
X47060000Y-20000000D02*
X36940000Y-20000000D01*
X36940000Y-27560000D02*
X36940000Y-18440000D01*
X47060000Y-18440000D02*
X36940000Y-18440000D01*
X47300000Y-19940000D02*
X47300000Y-18200000D01*
X47060000Y-27560000D02*
X47060000Y-18440000D01*
X44500000Y-20820000D02*
G75*
G03*
X43711288Y-21016648I0J-1680000D01*
G01*
X45984000Y-23289000D02*
G75*
G03*
X45983953Y-21710911I-1483995J789000D01*
G01*
X45289000Y-21016000D02*
G75*
G03*
X44470617Y-20819550I-788998J-1483995D01*
G01*
X43711000Y-23984000D02*
G75*
G03*
X45289089Y-23983953I789000J1483995D01*
G01*
X43015999Y-21711000D02*
G75*
G03*
X43016047Y-23289089I1484001J-789000D01*
G01*
X40400000Y-25500000D02*
G75*
G03*
X40400000Y-25500000I-900000J0D01*
G01*
X45400000Y-25500000D02*
G75*
G03*
X45400000Y-25500000I-900000J0D01*
G01*
X41180000Y-22500000D02*
G75*
G03*
X41180000Y-22500000I-1680000J0D01*
G01*
G04 #@! TO.C,RV5*
X24620000Y-95120000D02*
X24620000Y-78880000D01*
X7380000Y-90120000D02*
X7380000Y-83879000D01*
X16380000Y-92120000D02*
X16380000Y-81880000D01*
X7380000Y-83879000D02*
X-8620000Y-83879000D01*
X7380000Y-92120000D02*
X7380000Y-81880000D01*
X24620000Y-78880000D02*
X16380000Y-78880000D01*
X16380000Y-81880000D02*
X7380000Y-81880000D01*
X16380000Y-95120000D02*
X16380000Y-78880000D01*
X16380000Y-92120000D02*
X7380000Y-92120000D01*
X24620000Y-95120000D02*
X16380000Y-95120000D01*
X-8620000Y-90120000D02*
X-8620000Y-83879000D01*
X7380000Y-90120000D02*
X-8620000Y-90120000D01*
G04 #@! TO.C,R10*
X44730000Y-64370000D02*
X51270000Y-64370000D01*
X41420000Y-63000000D02*
X44730000Y-63000000D01*
X51270000Y-64370000D02*
X51270000Y-61630000D01*
X51270000Y-61630000D02*
X44730000Y-61630000D01*
X54580000Y-63000000D02*
X51270000Y-63000000D01*
X44730000Y-61630000D02*
X44730000Y-64370000D01*
G04 #@! TO.C,C2*
X84020000Y-101330000D02*
X84020000Y-106170000D01*
X79980000Y-101330000D02*
X79980000Y-106170000D01*
X84020000Y-101330000D02*
X79980000Y-101330000D01*
X84020000Y-106170000D02*
X79980000Y-106170000D01*
G04 #@! TO.C,RV1*
X75120000Y-111380000D02*
X58880000Y-111380000D01*
X70120000Y-128620000D02*
X70120000Y-144620000D01*
X72120000Y-119620000D02*
X72120000Y-128620000D01*
X63879000Y-128620000D02*
X63879000Y-144620000D01*
X72120000Y-128620000D02*
X61880000Y-128620000D01*
X75120000Y-119620000D02*
X58880000Y-119620000D01*
X61880000Y-119620000D02*
X61880000Y-128620000D01*
X58880000Y-111380000D02*
X58880000Y-119620000D01*
X70120000Y-128620000D02*
X63879000Y-128620000D01*
X70120000Y-144620000D02*
X63879000Y-144620000D01*
X72120000Y-119620000D02*
X61880000Y-119620000D01*
X75120000Y-111380000D02*
X75120000Y-119620000D01*
G04 #@! TO.C,U2*
X64360000Y-43670000D02*
X64360000Y-61570000D01*
X61870000Y-43610000D02*
X61870000Y-61630000D01*
X69660000Y-43670000D02*
X68010000Y-43670000D01*
X69660000Y-61570000D02*
X69660000Y-43670000D01*
X72150000Y-43610000D02*
X61870000Y-43610000D01*
X64360000Y-61570000D02*
X69660000Y-61570000D01*
X66010000Y-43670000D02*
X64360000Y-43670000D01*
X61870000Y-61630000D02*
X72150000Y-61630000D01*
X72150000Y-61630000D02*
X72150000Y-43610000D01*
X66010000Y-43670000D02*
G75*
G03*
X68010000Y-43670000I1000000J0D01*
G01*
G04 #@! TO.C,R9*
X51270000Y-70370000D02*
X51270000Y-67630000D01*
X41420000Y-69000000D02*
X44730000Y-69000000D01*
X51270000Y-67630000D02*
X44730000Y-67630000D01*
X44730000Y-67630000D02*
X44730000Y-70370000D01*
X44730000Y-70370000D02*
X51270000Y-70370000D01*
X54580000Y-69000000D02*
X51270000Y-69000000D01*
G04 #@! TO.C,R7*
X54580000Y-87000000D02*
X51270000Y-87000000D01*
X44730000Y-85630000D02*
X44730000Y-88370000D01*
X51270000Y-85630000D02*
X44730000Y-85630000D01*
X41420000Y-87000000D02*
X44730000Y-87000000D01*
X44730000Y-88370000D02*
X51270000Y-88370000D01*
X51270000Y-88370000D02*
X51270000Y-85630000D01*
G04 #@! TO.C,Q2*
X77120000Y-29255000D02*
X77120000Y-32745000D01*
X71400000Y-32425000D02*
X71400000Y-32745000D01*
X68880000Y-32745000D02*
X77120000Y-32745000D01*
X74601000Y-29255000D02*
X74601000Y-30835000D01*
X71400000Y-29255000D02*
X71400000Y-30325000D01*
X68880000Y-29255000D02*
X77120000Y-29255000D01*
X68880000Y-29255000D02*
X68880000Y-32745000D01*
X74601000Y-31915000D02*
X74601000Y-32745000D01*
G04 #@! TO.C,R8*
X44730000Y-94370000D02*
X51270000Y-94370000D01*
X54580000Y-93000000D02*
X51270000Y-93000000D01*
X41420000Y-93000000D02*
X44730000Y-93000000D01*
X44730000Y-91630000D02*
X44730000Y-94370000D01*
X51270000Y-91630000D02*
X44730000Y-91630000D01*
X51270000Y-94370000D02*
X51270000Y-91630000D01*
G04 #@! TO.C,R4*
X51270000Y-51370000D02*
X51270000Y-48630000D01*
X54580000Y-50000000D02*
X51270000Y-50000000D01*
X41420000Y-50000000D02*
X44730000Y-50000000D01*
X44730000Y-51370000D02*
X51270000Y-51370000D01*
X44730000Y-48630000D02*
X44730000Y-51370000D01*
X51270000Y-48630000D02*
X44730000Y-48630000D01*
G04 #@! TO.C,R2*
X44730000Y-73630000D02*
X44730000Y-76370000D01*
X51270000Y-73630000D02*
X44730000Y-73630000D01*
X41420000Y-75000000D02*
X44730000Y-75000000D01*
X44730000Y-76370000D02*
X51270000Y-76370000D01*
X51270000Y-76370000D02*
X51270000Y-73630000D01*
X54580000Y-75000000D02*
X51270000Y-75000000D01*
G04 #@! TO.C,Q1*
X62601000Y-29255000D02*
X62601000Y-30835000D01*
X59400000Y-32425000D02*
X59400000Y-32745000D01*
X56880000Y-32745000D02*
X65120000Y-32745000D01*
X56880000Y-29255000D02*
X65120000Y-29255000D01*
X62601000Y-31915000D02*
X62601000Y-32745000D01*
X59400000Y-29255000D02*
X59400000Y-30325000D01*
X56880000Y-29255000D02*
X56880000Y-32745000D01*
X65120000Y-29255000D02*
X65120000Y-32745000D01*
G04 #@! TO.C,RV2*
X58880000Y-22620000D02*
X75120000Y-22620000D01*
X58880000Y-22620000D02*
X58880000Y-14380000D01*
X61880000Y-14380000D02*
X72120000Y-14380000D01*
X61880000Y-5380000D02*
X72120000Y-5380000D01*
X63880000Y-5380000D02*
X63880000Y10620000D01*
X72120000Y-14380000D02*
X72120000Y-5380000D01*
X63880000Y10620000D02*
X70121000Y10620000D01*
X61880000Y-14380000D02*
X61880000Y-5380000D01*
X70121000Y-5380000D02*
X70121000Y10620000D01*
X63880000Y-5380000D02*
X70121000Y-5380000D01*
X58880000Y-14380000D02*
X75120000Y-14380000D01*
X75120000Y-22620000D02*
X75120000Y-14380000D01*
G04 #@! TO.C,U1*
X72150000Y-103005000D02*
X72150000Y-84985000D01*
X72150000Y-84985000D02*
X61870000Y-84985000D01*
X64360000Y-85045000D02*
X64360000Y-102945000D01*
X66010000Y-85045000D02*
X64360000Y-85045000D01*
X69660000Y-85045000D02*
X68010000Y-85045000D01*
X69660000Y-102945000D02*
X69660000Y-85045000D01*
X64360000Y-102945000D02*
X69660000Y-102945000D01*
X61870000Y-103005000D02*
X72150000Y-103005000D01*
X61870000Y-84985000D02*
X61870000Y-103005000D01*
X66010000Y-85045000D02*
G75*
G03*
X68010000Y-85045000I1000000J0D01*
G01*
G04 #@! TO.C,C1*
X63830000Y-77980000D02*
X63830000Y-82020000D01*
X63830000Y-82020000D02*
X68670000Y-82020000D01*
X63830000Y-77980000D02*
X68670000Y-77980000D01*
X68670000Y-77980000D02*
X68670000Y-82020000D01*
G04 #@! TD*
M02*
