G04 #@! TF.GenerationSoftware,KiCad,Pcbnew,(6.0.8)*
G04 #@! TF.CreationDate,2022-11-06T18:43:30+02:00*
G04 #@! TF.ProjectId,PIDController - Copy,50494443-6f6e-4747-926f-6c6c6572202d,rev?*
G04 #@! TF.SameCoordinates,Original*
G04 #@! TF.FileFunction,Soldermask,Top*
G04 #@! TF.FilePolarity,Negative*
%FSLAX46Y46*%
G04 Gerber Fmt 4.6, Leading zero omitted, Abs format (unit mm)*
G04 Created by KiCad (PCBNEW (6.0.8)) date 2022-11-06 18:43:30*
%MOMM*%
%LPD*%
G01*
G04 APERTURE LIST*
%ADD10C,1.600000*%
%ADD11O,1.600000X1.600000*%
%ADD12R,2.000000X4.600000*%
%ADD13O,2.000000X4.200000*%
%ADD14O,4.200000X2.000000*%
%ADD15C,2.340000*%
%ADD16R,2.500000X2.500000*%
%ADD17C,2.500000*%
%ADD18C,1.400000*%
%ADD19R,1.600000X1.600000*%
%ADD20R,1.800000X1.800000*%
%ADD21O,1.800000X1.800000*%
G04 APERTURE END LIST*
D10*
G04 #@! TO.C,R5*
X40380000Y-56000000D03*
D11*
X55620000Y-56000000D03*
G04 #@! TD*
D12*
G04 #@! TO.C,J2*
X109000000Y-109000000D03*
D13*
X115300000Y-109000000D03*
D14*
X111900000Y-104200000D03*
G04 #@! TD*
D15*
G04 #@! TO.C,RV4*
X23000000Y-42000000D03*
X23000000Y-47000000D03*
X23000000Y-52000000D03*
G04 #@! TD*
D10*
G04 #@! TO.C,R1*
X40380000Y-105000000D03*
D11*
X55620000Y-105000000D03*
G04 #@! TD*
D12*
G04 #@! TO.C,J1*
X109000000Y-96000000D03*
D13*
X115300000Y-96000000D03*
D14*
X111900000Y-91200000D03*
G04 #@! TD*
D15*
G04 #@! TO.C,RV3*
X23000000Y-62000000D03*
X23000000Y-67000000D03*
X23000000Y-72000000D03*
G04 #@! TD*
D10*
G04 #@! TO.C,R3*
X55620000Y-99000000D03*
D11*
X40380000Y-99000000D03*
G04 #@! TD*
D12*
G04 #@! TO.C,J4*
X108000000Y-26000000D03*
D13*
X114300000Y-26000000D03*
D14*
X110900000Y-21200000D03*
G04 #@! TD*
D12*
G04 #@! TO.C,J5*
X108000000Y-39000000D03*
D13*
X114300000Y-39000000D03*
D14*
X110900000Y-34200000D03*
G04 #@! TD*
D10*
G04 #@! TO.C,R6*
X40380000Y-81000000D03*
D11*
X55620000Y-81000000D03*
G04 #@! TD*
D16*
G04 #@! TO.C,M1*
X44500000Y-22500000D03*
D17*
X39500000Y-22500000D03*
G04 #@! TD*
D15*
G04 #@! TO.C,RV5*
X23000000Y-82000000D03*
X23000000Y-87000000D03*
X23000000Y-92000000D03*
G04 #@! TD*
D10*
G04 #@! TO.C,R10*
X40380000Y-63000000D03*
D11*
X55620000Y-63000000D03*
G04 #@! TD*
D18*
G04 #@! TO.C,C2*
X82000000Y-102500000D03*
X82000000Y-105000000D03*
G04 #@! TD*
D15*
G04 #@! TO.C,RV1*
X62000000Y-113000000D03*
X67000000Y-113000000D03*
X72000000Y-113000000D03*
G04 #@! TD*
D19*
G04 #@! TO.C,U2*
X63200000Y-45000000D03*
D11*
X63200000Y-47540000D03*
X63200000Y-50080000D03*
X63200000Y-52620000D03*
X63200000Y-55160000D03*
X63200000Y-57700000D03*
X63200000Y-60240000D03*
X70820000Y-60240000D03*
X70820000Y-57700000D03*
X70820000Y-55160000D03*
X70820000Y-52620000D03*
X70820000Y-50080000D03*
X70820000Y-47540000D03*
X70820000Y-45000000D03*
G04 #@! TD*
D10*
G04 #@! TO.C,R9*
X55620000Y-69000000D03*
D11*
X40380000Y-69000000D03*
G04 #@! TD*
D10*
G04 #@! TO.C,R7*
X40380000Y-87000000D03*
D11*
X55620000Y-87000000D03*
G04 #@! TD*
D20*
G04 #@! TO.C,Q2*
X70460000Y-31375000D03*
D21*
X73000000Y-31375000D03*
X75540000Y-31375000D03*
G04 #@! TD*
D10*
G04 #@! TO.C,R8*
X40380000Y-93000000D03*
D11*
X55620000Y-93000000D03*
G04 #@! TD*
D10*
G04 #@! TO.C,R4*
X55620000Y-50000000D03*
D11*
X40380000Y-50000000D03*
G04 #@! TD*
D10*
G04 #@! TO.C,R2*
X55620000Y-75000000D03*
D11*
X40380000Y-75000000D03*
G04 #@! TD*
D20*
G04 #@! TO.C,Q1*
X58460000Y-31375000D03*
D21*
X61000000Y-31375000D03*
X63540000Y-31375000D03*
G04 #@! TD*
D15*
G04 #@! TO.C,RV2*
X72000000Y-21000000D03*
X67000000Y-21000000D03*
X62000000Y-21000000D03*
G04 #@! TD*
D19*
G04 #@! TO.C,U1*
X63200000Y-86375000D03*
D11*
X63200000Y-88915000D03*
X63200000Y-91455000D03*
X63200000Y-93995000D03*
X63200000Y-96535000D03*
X63200000Y-99075000D03*
X63200000Y-101615000D03*
X70820000Y-101615000D03*
X70820000Y-99075000D03*
X70820000Y-96535000D03*
X70820000Y-93995000D03*
X70820000Y-91455000D03*
X70820000Y-88915000D03*
X70820000Y-86375000D03*
G04 #@! TD*
D18*
G04 #@! TO.C,C1*
X65000000Y-80000000D03*
X67500000Y-80000000D03*
G04 #@! TD*
M02*
